<?xml version="1.0" encoding="UTF-8"?>
<svg version="1.1" xmlns="http://www.w3.org/2000/svg" width="1536" height="1024">
<path d="M0 0 C1.99803757 -0.00390512 3.99607434 -0.00824336 5.99411011 -0.01298523 C10.15397854 -0.02038102 14.31376201 -0.02020576 18.47363281 -0.01489258 C22.68370251 -0.01026443 26.89348316 -0.01717585 31.10351562 -0.03540039 C107.25126779 -0.36228024 107.25126779 -0.36228024 123.66796875 15.18359375 C125.46661579 17.14785497 127.08227361 19.17089606 128.6796875 21.30078125 C129.37191406 22.120625 129.37191406 22.120625 130.078125 22.95703125 C141.05873298 37.59784189 138.84991072 62.08565827 138.8828125 79.3046875 C138.88705357 80.81144704 138.88705357 80.81144704 138.89138031 82.34864616 C138.90630442 87.66675955 138.91557616 92.98484629 138.91992188 98.30297852 C138.92539082 103.74346797 138.94940535 109.18370522 138.97789383 114.62411594 C138.99668758 118.85481946 139.00173466 123.08546428 139.00325775 127.31620598 C139.00624813 129.31929843 139.01415105 131.32239078 139.02744293 133.32544136 C139.13261816 150.39540051 138.47155227 167.71705172 130.6796875 183.30078125 C130.0196875 183.30078125 129.3596875 183.30078125 128.6796875 183.30078125 C128.5146875 183.98140625 128.3496875 184.66203125 128.1796875 185.36328125 C124.59589685 192.38153794 116.85017671 197.39218844 109.6796875 200.30078125 C89.54293279 206.50997328 68.56453807 206.60948619 47.6796875 206.56640625 C45.34130819 206.56775722 43.00292915 206.56970133 40.66455078 206.57220459 C35.81051914 206.57512621 30.95656195 206.57094852 26.10253906 206.56152344 C19.87964083 206.55002806 13.65691325 206.55677016 7.434021 206.56866837 C2.6265737 206.57588073 -2.18083276 206.57360367 -6.98828125 206.56841278 C-9.28483094 206.56707982 -11.58138434 206.56871162 -13.87792969 206.57337189 C-17.06976258 206.57843785 -20.26131321 206.57073038 -23.453125 206.55957031 C-24.39850128 206.56361877 -25.34387756 206.56766724 -26.31790161 206.57183838 C-27.1863974 206.56619873 -28.05489319 206.56055908 -28.94970703 206.55474854 C-30.07773239 206.55361746 -30.07773239 206.55361746 -31.22854614 206.55246353 C-33.63071987 206.26343289 -35.19047858 205.42114114 -37.3203125 204.30078125 C-39.34762076 203.86913439 -41.37622509 203.44183662 -43.41333008 203.05908203 C-55.01179684 200.8536462 -66.30552002 197.48354453 -73.3203125 187.30078125 C-74.0009375 186.68203125 -74.6815625 186.06328125 -75.3828125 185.42578125 C-88.02711832 171.55783293 -85.47995415 145.67329252 -85.48828125 128.07421875 C-85.49151029 126.43494643 -85.49487546 124.79567437 -85.49836731 123.15640259 C-85.50431412 119.73251685 -85.50621218 116.30865615 -85.50561523 112.88476562 C-85.50553453 109.43712046 -85.51239407 105.98960976 -85.52612305 102.54199219 C-85.59131241 85.87283223 -85.61469504 69.22872912 -84.49609375 52.58984375 C-84.42674118 51.50641693 -84.35738861 50.42299011 -84.28593445 49.30673218 C-83.465826 38.81267772 -81.81779079 28.80980761 -75.3203125 20.30078125 C-74.83949219 19.62273437 -74.35867188 18.9446875 -73.86328125 18.24609375 C-65.02663464 6.85090469 -49.77450856 3.48432006 -36.08963013 1.70295715 C-24.04409849 0.31025567 -12.11634033 -0.01008713 0 0 Z " fill="#C47AC9" transform="translate(470.3203125,363.69921875)"/>
<path d="M0 0 C1.19625 0.39703125 2.3925 0.7940625 3.625 1.203125 C9.58401691 3.30474257 13.87953345 5.05544014 18 10 C19.28282474 11.07315876 20.5755052 12.13458866 21.875 13.1875 C26.51109005 17.23862201 29.84812517 21.72902485 33 27 C33.51046875 27.83660156 34.0209375 28.67320312 34.546875 29.53515625 C40.46718997 41.09307452 39.59540506 56.36299625 36.375 68.6875 C30.41704622 86.10465409 19.28894149 97.92458129 3.00390625 106.16015625 C-12.15132733 113.38226208 -32.97945729 113.6737931 -48.75488281 108.20117188 C-55.67242715 105.55096755 -61.76568985 102.00539758 -67.375 97.1875 C-69.71285004 94.89321327 -69.71285004 94.89321327 -72.0625 94.5625 C-75.46081581 93.57589218 -77.17031183 90.85267676 -79 88 C-80.65024531 84.75995793 -81.85376063 81.44785149 -83 78 C-83.37511719 76.87207031 -83.75023437 75.74414062 -84.13671875 74.58203125 C-89.18246995 57.78056498 -88.35709673 40.6822033 -80 25 C-75.84784219 19.02494364 -71.1665464 13.72765054 -65.46875 9.1953125 C-63.85340407 7.9482192 -63.85340407 7.9482192 -62.1875 5.9375 C-57.64973082 1.91833301 -51.85666778 -0.58746484 -46 -2 C-44.82566406 -2.34289062 -43.65132813 -2.68578125 -42.44140625 -3.0390625 C-28.71683852 -6.44562264 -13.14736444 -4.68679195 0 0 Z " fill="#FBC73A" transform="translate(521,408)"/>
<path d="M0 0 C3.66181308 2.43606933 5.32631926 4.92441054 6.54296875 9.046875 C6.70877349 11.9416831 6.77653783 14.73752205 6.73828125 17.62890625 C6.73626709 18.35122437 6.73425293 19.07354248 6.73217773 19.81774902 C6.72176761 22.49835625 6.6938452 25.17887246 6.66796875 27.859375 C6.62671875 33.86125 6.58546875 39.863125 6.54296875 46.046875 C21.06296875 46.046875 35.58296875 46.046875 50.54296875 46.046875 C50.38512483 33.8559611 50.38512483 33.8559611 50.18261719 21.66577148 C50.17092258 20.12484857 50.16073258 18.5839132 50.15234375 17.04296875 C50.13187988 16.25829224 50.11141602 15.47361572 50.09033203 14.66516113 C50.08677497 8.99432269 51.23900234 5.69130993 54.54296875 1.046875 C58.69076695 -1.02987678 62.51057871 -1.2248246 67.10546875 -1.203125 C68.19988281 -1.20828125 69.29429687 -1.2134375 70.421875 -1.21875 C75.12247733 -0.81869874 77.51962466 -0.13312305 80.65834045 3.48606873 C83.43289412 7.84351765 83.09513368 12.359888 83.04467773 17.37915039 C83.05278221 18.91923515 83.05278221 18.91923515 83.06105042 20.49043274 C83.07353126 23.87542779 83.05705134 27.25957134 83.0390625 30.64453125 C83.03921749 33.00052434 83.04070647 35.35651769 83.04347229 37.71250916 C83.04485596 42.64610081 83.03230214 47.57940163 83.00952148 52.51293945 C82.98112175 58.83712181 82.98387902 65.16082155 82.9966116 71.48503971 C83.00356551 76.34834415 82.99578296 81.211537 82.98335457 86.07482719 C82.9788384 88.40682993 82.9785047 90.73884464 82.98241997 93.07084846 C82.98532968 96.32881371 82.9688364 99.58611303 82.94702148 102.84399414 C82.95152313 103.80776978 82.95602478 104.77154541 82.96066284 105.76452637 C82.90603044 110.67419354 82.76523334 114.07569324 79.54296875 118.046875 C75.00813949 122.04411456 69.93834723 121.39169462 64.23046875 121.234375 C62.83344727 121.21407227 62.83344727 121.21407227 61.40820312 121.19335938 C59.11919229 121.15814382 56.83138417 121.10889599 54.54296875 121.046875 C54.54296875 120.056875 54.54296875 119.066875 54.54296875 118.046875 C53.88296875 117.716875 53.22296875 117.386875 52.54296875 117.046875 C50.52607025 112.40231151 50.28745163 108.11196656 50.3828125 103.12890625 C50.38801407 102.38984543 50.39321564 101.65078461 50.39857483 100.889328 C50.41627449 98.54580304 50.44744338 96.20273003 50.48046875 93.859375 C50.50812916 91.50535401 50.53282013 89.15139558 50.551651 86.79728699 C50.56386613 85.33703503 50.58142853 83.87681563 50.60496521 82.41670227 C50.6354473 79.33105439 50.52766118 77.0009523 49.54296875 74.046875 C49.87296875 73.386875 50.20296875 72.726875 50.54296875 72.046875 C49.05796875 72.541875 49.05796875 72.541875 47.54296875 73.046875 C47.87296875 73.706875 48.20296875 74.366875 48.54296875 75.046875 C34.35296875 75.046875 20.16296875 75.046875 5.54296875 75.046875 C5.87296875 75.706875 6.20296875 76.366875 6.54296875 77.046875 C6.66597777 79.53016609 6.73131763 81.98433057 6.74609375 84.46875 C6.75179382 85.20635559 6.7574939 85.94396118 6.7633667 86.70391846 C6.77282008 88.26744146 6.77935202 89.83098441 6.78320312 91.39453125 C6.79287494 93.77379768 6.82387954 96.15218764 6.85546875 98.53125 C6.86200245 100.05207822 6.86725148 101.5729126 6.87109375 103.09375 C6.88344055 103.80021667 6.89578735 104.50668335 6.9085083 105.23455811 C6.88765838 109.91571457 6.01548297 113.07724208 3.54296875 117.046875 C-1.99865735 121.79457186 -6.75880811 121.74447082 -13.80078125 121.578125 C-18.90106841 120.83705763 -22.08502086 118.89775077 -25.45703125 115.046875 C-26.61713188 112.72667374 -26.58515612 111.39206063 -26.59074402 108.80911255 C-26.595009 107.92024353 -26.59927399 107.03137451 -26.60366821 106.11557007 C-26.60321503 105.13786652 -26.60276184 104.16016296 -26.60229492 103.15283203 C-26.60565353 102.12508667 -26.60901215 101.09734131 -26.61247253 100.03845215 C-26.62200308 96.62718511 -26.62392673 93.21596704 -26.625 89.8046875 C-26.62821123 87.44058207 -26.6315752 85.07647683 -26.63508606 82.71237183 C-26.64108268 77.75078877 -26.64292542 72.78922315 -26.64233398 67.82763672 C-26.64223236 61.46298768 -26.65588275 55.09845019 -26.67310619 48.73382759 C-26.68421304 43.84914637 -26.68625359 38.96449221 -26.68572426 34.07979965 C-26.68690643 31.7330067 -26.69134143 29.38621309 -26.69905663 27.03943253 C-26.70882943 23.7594441 -26.70598905 20.47969919 -26.69995117 17.19970703 C-26.70557068 16.22605194 -26.71119019 15.25239685 -26.71697998 14.24923706 C-26.71278549 13.35472839 -26.708591 12.46021973 -26.70426941 11.53860474 C-26.70481418 10.7632091 -26.70535894 9.98781345 -26.70592022 9.18892097 C-26.24120493 5.1893805 -24.83646088 3.36453702 -21.76953125 0.796875 C-15.55008144 -2.48961322 -6.47956678 -2.51353624 0 0 Z " fill="#FCD5E5" transform="translate(670.45703125,404.953125)"/>
<path d="M0 0 C3.72279186 2.2468365 5.24883151 5.40974474 6.859375 9.30859375 C7.19995117 12.92724609 7.19995117 12.92724609 7.15234375 16.89453125 C7.14809891 17.596315 7.14385406 18.29809875 7.13948059 19.02114868 C7.12281099 21.24236935 7.08518372 23.46265163 7.046875 25.68359375 C7.03181288 27.19790348 7.01812716 28.71222756 7.00585938 30.2265625 C6.97294683 33.92087307 6.92124759 37.61464168 6.859375 41.30859375 C7.31280273 40.83695801 7.76623047 40.36532227 8.23339844 39.87939453 C15.48981951 32.86921237 26.81601196 32.93525656 36.2265625 33.03515625 C46.09949478 33.77828018 53.70059605 37.60706216 60.859375 44.30859375 C61.68888672 45.07623047 61.68888672 45.07623047 62.53515625 45.859375 C70.95330745 54.62556346 74.04539624 66.03149478 73.984375 77.80859375 C73.98824219 78.55496094 73.99210937 79.30132812 73.99609375 80.0703125 C73.98922706 83.94998961 73.80667276 87.51940273 72.859375 91.30859375 C72.199375 91.30859375 71.539375 91.30859375 70.859375 91.30859375 C70.818125 92.23671875 70.776875 93.16484375 70.734375 94.12109375 C69.27475399 103.62783583 63.39091673 110.8097998 55.8828125 116.42578125 C44.40151493 123.57563323 29.37422969 124.36020158 16.30859375 121.54296875 C11.50978424 119.90656821 7.5483585 117.87037092 3.859375 114.30859375 C3.446875 115.09234375 3.034375 115.87609375 2.609375 116.68359375 C0.69095641 119.56122164 0.03199215 120.15108832 -3.140625 121.30859375 C-6.63671875 121.64453125 -6.63671875 121.64453125 -10.578125 121.68359375 C-11.87621094 121.71195313 -13.17429687 121.7403125 -14.51171875 121.76953125 C-18.74797591 121.23144907 -20.23535913 120.39319702 -23.140625 117.30859375 C-26.65351941 111.89278382 -26.51999061 107.21606156 -26.3894043 100.98876953 C-26.38008881 99.96376846 -26.37077332 98.9387674 -26.36117554 97.88270569 C-26.32689325 94.50609763 -26.27098269 91.13021573 -26.21484375 87.75390625 C-26.18680153 85.40837129 -26.1601121 83.06281979 -26.13471985 80.71725464 C-26.06434742 74.55213667 -25.97561521 68.38741469 -25.88305664 62.22259521 C-25.79180673 55.92848078 -25.71792345 49.63416512 -25.64257812 43.33984375 C-25.49225608 30.99583488 -25.32253714 18.65217466 -25.140625 6.30859375 C-24.480625 6.30859375 -23.820625 6.30859375 -23.140625 6.30859375 C-22.91375 5.71046875 -22.686875 5.11234375 -22.453125 4.49609375 C-18.11319703 -2.73711954 -7.20283323 -2.32646256 0 0 Z M9.859375 62.30859375 C5.01463534 69.72710136 4.72279996 78.92104204 6.25 87.50390625 C8.06306639 92.68741656 12.12221589 95.89577926 16.859375 98.30859375 C23.23207401 100.26302672 28.70839171 99.39722358 34.72265625 96.6875 C39.00839142 93.92175134 40.2810974 90.04342655 41.859375 85.30859375 C42.86763575 73.06910082 42.86763575 73.06910082 37.859375 62.30859375 C32.6205435 58.05204316 27.92949492 56.87729464 21.30859375 56.96484375 C16.87626424 57.58692508 13.33751958 59.54483986 9.859375 62.30859375 Z " fill="#D276D2" transform="translate(1020.140625,404.69140625)"/>
<path d="M0 0 C7.93989906 8.2339694 8.45905525 19.64321926 8.3984375 30.4921875 C8.40130768 31.64115509 8.40417786 32.79012268 8.40713501 33.97390747 C8.40916268 36.38234963 8.40372445 38.79080875 8.39111328 41.19921875 C8.37495271 44.88578795 8.39105248 48.57127559 8.41015625 52.2578125 C8.40817532 54.60677325 8.40433477 56.95573332 8.3984375 59.3046875 C8.40451019 60.40368378 8.41058289 61.50268005 8.4168396 62.63497925 C8.40265488 64.17280563 8.40265488 64.17280563 8.38818359 65.74169922 C8.38579681 66.63895721 8.38341003 67.53621521 8.38095093 68.46066284 C7.91175899 71.58819565 6.847308 73.44950763 5 76 C0.58199352 78.94533766 -3.74869339 79.17910323 -9 79 C-13.7733194 77.62173322 -17.48481759 75.40156921 -20 71 C-20.5775 71.5775 -21.155 72.155 -21.75 72.75 C-32.88365801 80.45791708 -46.38649868 80.25637357 -59.34765625 78.5625 C-66.93108942 76.85596089 -73.17773211 73.08486142 -77.6328125 66.63671875 C-81.85755163 58.87526944 -82.9465055 51.6484397 -80.73828125 43.0859375 C-79.60847658 39.89379097 -78.14958252 37.61980369 -76 35 C-75.34 35 -74.68 35 -74 35 C-73.814375 34.4225 -73.62875 33.845 -73.4375 33.25 C-69.92845242 27.75757769 -63.01498955 26.09642645 -57.01171875 24.59765625 C-45.5198254 22.31716379 -33.44634675 22.48009531 -22 25 C-22.59330176 21.74706965 -23.38170337 18.89752158 -25 16 C-30.13395719 12.55610325 -37.01352346 12.24540212 -43 13 C-47.77108716 14.07734226 -52.14263047 15.59387759 -56.5625 17.6875 C-60.83828738 19.32007336 -64.47719834 19.78620664 -69 19 C-72.0625 17.125 -72.0625 17.125 -74 15 C-74 14.34 -74 13.68 -74 13 C-74.66 13 -75.32 13 -76 13 C-77.26489516 7.83501145 -77.03688124 5.09781295 -74.3984375 0.67578125 C-70.62811679 -3.84228463 -66.74263342 -5.68167923 -61.125 -7.1875 C-59.95195313 -7.51105469 -58.77890625 -7.83460938 -57.5703125 -8.16796875 C-39.0416983 -12.48590619 -15.48133737 -12.31470018 0 0 Z M-48.5625 43.625 C-50.64360346 47.06334484 -50.81217158 50.08388554 -50 54 C-47.79259319 56.96858157 -46.51402627 57.82865791 -43 59 C-36.47568626 59.56244084 -31.60663577 58.48273708 -26 55 C-22.56260824 51.13293427 -22.33371434 47.00571513 -22 42 C-27.2448892 36.7551108 -42.78060611 39.95843314 -48.5625 43.625 Z " fill="#EC70C8" transform="translate(975,448)"/>
<path d="M0 0 C1.19625 0.39703125 2.3925 0.7940625 3.625 1.203125 C9.58401691 3.30474257 13.87953345 5.05544014 18 10 C19.28282474 11.07315876 20.5755052 12.13458866 21.875 13.1875 C26.51109005 17.23862201 29.84812517 21.72902485 33 27 C33.51046875 27.83660156 34.0209375 28.67320312 34.546875 29.53515625 C40.46718997 41.09307452 39.59540506 56.36299625 36.375 68.6875 C30.41704622 86.10465409 19.28894149 97.92458129 3.00390625 106.16015625 C-12.15132733 113.38226208 -32.97945729 113.6737931 -48.75488281 108.20117188 C-55.67242715 105.55096755 -61.76568985 102.00539758 -67.375 97.1875 C-69.71285004 94.89321327 -69.71285004 94.89321327 -72.0625 94.5625 C-75.46081581 93.57589218 -77.17031183 90.85267676 -79 88 C-80.65024531 84.75995793 -81.85376063 81.44785149 -83 78 C-83.37511719 76.87207031 -83.75023437 75.74414062 -84.13671875 74.58203125 C-89.18246995 57.78056498 -88.35709673 40.6822033 -80 25 C-75.84784219 19.02494364 -71.1665464 13.72765054 -65.46875 9.1953125 C-63.85340407 7.9482192 -63.85340407 7.9482192 -62.1875 5.9375 C-57.64973082 1.91833301 -51.85666778 -0.58746484 -46 -2 C-44.82566406 -2.34289062 -43.65132813 -2.68578125 -42.44140625 -3.0390625 C-28.71683852 -6.44562264 -13.14736444 -4.68679195 0 0 Z M-64 27 C-69.59238139 34.67649868 -72.38691581 41.74581648 -72.3125 51.3125 C-72.30686035 52.066521 -72.3012207 52.82054199 -72.29541016 53.59741211 C-72.0592526 64.4290941 -68.41924919 71.31665484 -60.99609375 79.1015625 C-51.51730925 88.15642998 -39.82726954 92.40289854 -26.8125 92.3125 C-25.55783936 92.30512817 -25.55783936 92.30512817 -24.27783203 92.29760742 C-9.70117633 92.02350445 1.08999711 87.38190487 11.703125 77.4609375 C19.39308263 69.22169718 24.22416995 58.3365947 24 47 C22.63081717 35.28911707 18.08156894 26.08870829 9 18.5 C2.9326149 14.0158089 -2.69271641 11.87957027 -10.08203125 10.4296875 C-12 10 -12 10 -14 9 C-33.6892937 7.85476144 -50.21356265 11.95805522 -64 27 Z " fill="#FDD567" transform="translate(521,408)"/>
<path d="M0 0 C3.61748504 3.30292112 5.32803842 5.70348585 5.5625 10.5625 C5.32765686 14.78255999 4.12765468 17.05632501 1 20 C-3.00300886 22.00150443 -7.65063729 21.51105012 -12 21 C-14.9375 19.8828125 -14.9375 19.8828125 -17.875 18.5 C-24.91667776 15.24149813 -32.56001417 14.52000472 -40 17 C-40 18.65 -40 20.3 -40 22 C-34.85196334 24.07717293 -29.86181379 25.5718087 -24.43774414 26.7355957 C-0.93370666 31.7805626 -0.93370666 31.7805626 6.01171875 42.16796875 C9.46553156 48.57049132 9.03671471 58.62862969 7.38671875 65.5859375 C4.47466649 72.07712006 -1.24074247 76.51817651 -7.375 79.8125 C-15.96916166 82.62782882 -24.23675481 83.35870762 -33.25 83.3125 C-34.34739502 83.30903564 -35.44479004 83.30557129 -36.57543945 83.30200195 C-47.90855474 83.15040238 -59.87558779 82.42845627 -68.75 74.5625 C-71.61438184 71.30028735 -72.81363422 69.42880428 -73.375 65.125 C-72.89861498 61.15512486 -71.46959574 59.10463464 -69 56 C-64.49789546 52.99859698 -60.27926942 53.29563248 -55 54 C-52.4353542 55.08302939 -50.09761879 56.3902795 -47.66796875 57.74609375 C-39.61619444 61.53030979 -31.35331969 61.54847041 -23 59 C-22.22757731 57.16299211 -22.22757731 57.16299211 -22 55 C-24.27518187 51.93198812 -26.52740803 51.419769 -30.19140625 50.75390625 C-31.21943359 50.55603516 -32.24746094 50.35816406 -33.30664062 50.15429688 C-34.38107422 49.95900391 -35.45550781 49.76371094 -36.5625 49.5625 C-48.28427005 47.4201211 -60.19408594 44.85146028 -68.34765625 35.4453125 C-72.04082182 29.91218272 -72.75417175 22.95012908 -71.5234375 16.50390625 C-68.94781129 8.11189338 -64.44071883 2.56436109 -57 -2 C-41.86278814 -9.19226641 -14.28126231 -9.63985206 0 0 Z " fill="#FA8AC6" transform="translate(879,444)"/>
<path d="M0 0 C0.74507812 0.00902344 1.49015625 0.01804687 2.2578125 0.02734375 C4.08868059 0.05081642 5.91938238 0.08668475 7.75 0.125 C7.75 0.785 7.75 1.445 7.75 2.125 C8.348125 2.310625 8.94625 2.49625 9.5625 2.6875 C12.82613866 4.83217683 13.81172194 7.46127408 14.75 11.125 C15.19202808 16.00762428 15.17289817 20.88286562 15.1484375 25.78125 C15.15046164 27.2117935 15.1533759 28.64233599 15.15713501 30.07287598 C15.16154243 33.06186813 15.15517881 36.05059018 15.14111328 39.03955078 C15.12402199 42.8558935 15.13387174 46.67160313 15.15183067 50.48792267 C15.16271163 53.43919579 15.15920254 56.39032074 15.1514473 59.34159851 C15.14945717 60.7481036 15.15186249 62.15462249 15.15888596 63.56111145 C15.22119252 79.54255131 15.22119252 79.54255131 9.921875 85.01171875 C4.42454073 87.82959693 -2.91640755 87.65977537 -8.875 86.4375 C-12.25 85.125 -12.25 85.125 -13.75 83 C-13.915 82.38125 -14.08 81.7625 -14.25 81.125 C-14.91 81.125 -15.57 81.125 -16.25 81.125 C-18.41501075 77.6086204 -18.50312674 74.77871533 -18.50878906 70.69165039 C-18.51509338 69.38672134 -18.52139771 68.0817923 -18.52789307 66.73731995 C-18.5243128 65.31576401 -18.52021072 63.8942093 -18.515625 62.47265625 C-18.51697288 61.01061437 -18.51891443 59.54857294 -18.52142334 58.08653259 C-18.52436977 55.02419767 -18.52009311 51.96197954 -18.51074219 48.8996582 C-18.49935796 44.98114484 -18.50590351 41.06290577 -18.51788712 37.1444025 C-18.52512736 34.12546232 -18.52280769 31.10658675 -18.51763153 28.08764458 C-18.51630049 26.64320277 -18.51792358 25.19875503 -18.52259064 23.75432014 C-18.52769006 21.73212934 -18.51853497 19.70991789 -18.50878906 17.68774414 C-18.50719788 16.53842911 -18.50560669 15.38911407 -18.50396729 14.20497131 C-18.24956249 11.1196941 -17.56145305 8.91076988 -16.25 6.125 C-15.59 6.125 -14.93 6.125 -14.25 6.125 C-14.0025 5.50625 -13.755 4.8875 -13.5 4.25 C-10.48956837 -0.86773377 -5.34531532 -0.12277226 0 0 Z " fill="#A685E7" transform="translate(1119.25,439.875)"/>
<path d="M0 0 C3.65699382 2.63489391 5.57676262 4.31271836 6.40234375 8.80078125 C6.50437416 10.96880553 6.55073711 13.13967218 6.56347656 15.31005859 C6.57092392 16.27671196 6.57092392 16.27671196 6.57852173 17.26289368 C6.59308549 19.38751303 6.59993529 21.51205775 6.60546875 23.63671875 C6.61122454 25.11878459 6.61698222 26.60085043 6.6227417 28.08291626 C6.63323493 31.18809352 6.6390887 34.29324502 6.64257812 37.3984375 C6.6480623 41.36847384 6.67209548 45.33816713 6.70055008 49.30809593 C6.71921405 52.36909976 6.72438403 55.43002151 6.725914 58.49107742 C6.7289321 59.95424909 6.73693209 61.4174196 6.75009918 62.88053513 C6.76724086 64.93152424 6.76526045 66.98168228 6.75878906 69.03271484 C6.76425751 70.78000381 6.76425751 70.78000381 6.76983643 72.56259155 C6.35041506 76.25835481 5.34496604 78.64297377 3.40234375 81.80078125 C-2.64516068 85.74480588 -9.56259742 85.50888521 -16.59765625 84.80078125 C-20.43508204 83.32689107 -22.23012669 81.14797822 -24.59765625 77.80078125 C-25.70439266 74.48057201 -25.73803363 71.97892012 -25.75878906 68.48095703 C-25.76839661 67.17595245 -25.77800415 65.87094788 -25.78790283 64.52639771 C-25.79275071 63.0996315 -25.79702956 61.67286326 -25.80078125 60.24609375 C-25.80653491 58.78262328 -25.81229261 57.31915282 -25.8180542 55.85568237 C-25.82855591 52.78741098 -25.83440405 49.71916574 -25.83789062 46.65087891 C-25.84337477 42.7244327 -25.86740425 38.79833337 -25.89586258 34.87199593 C-25.91451047 31.84877521 -25.91969569 28.82563772 -25.9212265 25.80236435 C-25.92424853 24.35511249 -25.93226194 22.90786193 -25.94541168 21.46066666 C-25.96251579 19.43364604 -25.95874081 17.406482 -25.95410156 15.37939453 C-25.95774719 14.22706329 -25.96139282 13.07473206 -25.96514893 11.88748169 C-25.33718826 6.61301885 -22.51701598 3.23022102 -18.59765625 -0.19921875 C-12.76464142 -2.14355703 -5.66165032 -2.61372428 0 0 Z " fill="#FBA6D1" transform="translate(790.59765625,441.19921875)"/>
<path d="M0 0 C1.4540625 0.0309375 1.4540625 0.0309375 2.9375 0.0625 C3.06125 1.135 3.185 2.2075 3.3125 3.3125 C3.74775342 5.31243216 3.74775342 5.31243216 4.9375 7.0625 C7.4910906 8.35860817 9.96576062 9.17796996 12.72265625 9.9453125 C14.9375 11.0625 14.9375 11.0625 15.87109375 13.4921875 C15.9375 16.0625 15.9375 16.0625 13.9375 19.0625 C9.32896203 18.34241594 5.26512591 16.74954061 0.9375 15.0625 C0.24681207 18.92058513 -0.01521304 22.23619844 0.9375 26.0625 C3.56574401 28.47496043 6.17242372 29.99010916 9.3359375 31.625 C11.9375 33.0625 11.9375 33.0625 13.9375 36.0625 C14.70508297 41.28206421 14.91211779 45.64487412 11.875 50.0625 C7.25915913 53.20520017 3.57014314 55.0625 -2.0625 55.0625 C-2.0625 56.7125 -2.0625 58.3625 -2.0625 60.0625 C-4.7025 60.0625 -7.3425 60.0625 -10.0625 60.0625 C-10.0625 58.0825 -10.0625 56.1025 -10.0625 54.0625 C-11.5784375 54.2171875 -11.5784375 54.2171875 -13.125 54.375 C-18.27436741 53.96632005 -20.11545442 52.28457803 -24.0625 49.0625 C-23.3125 44.3125 -23.3125 44.3125 -21.0625 42.0625 C-17.62084679 42.41549007 -15.99377462 43.10831692 -13.0625 45.0625 C-10.67572924 45.35702584 -8.27623906 45.5553217 -5.875 45.6875 C-4.60269531 45.76226562 -3.33039063 45.83703125 -2.01953125 45.9140625 C-1.04371094 45.96304688 -0.06789063 46.01203125 0.9375 46.0625 C0.9375 43.7525 0.9375 41.4425 0.9375 39.0625 C-0.06410156 38.5778125 -1.06570313 38.093125 -2.09765625 37.59375 C-17.90780782 29.72240571 -17.90780782 29.72240571 -21.0625 23.0625 C-21.57420433 19.74754585 -21.26745727 17.18823074 -20.0625 14.0625 C-17.59794346 11.0142327 -15.31262376 9.22924917 -12.0625 7.0625 C-9.73050612 6.98344936 -7.39417378 6.97451231 -5.0625 7.0625 C-4.918125 6.093125 -4.77375 5.12375 -4.625 4.125 C-3.88189799 0.07922241 -3.88189799 0.07922241 0 0 Z " fill="#FDE480" transform="translate(500.0625,426.9375)"/>
<path d="M0 0 C0.91358618 2.49523225 1.09809135 3.70419326 0.25 6.26171875 C-2.91602183 12.40577986 -6.50773489 17.74917258 -11 23 C-11.4640625 23.59425781 -11.928125 24.18851562 -12.40625 24.80078125 C-20.96246685 34.69959596 -36.24266651 40.96824331 -49 42 C-68.5377265 43.38238631 -85.9902001 41.40167219 -101.375 28.1875 C-103.71285004 25.89321327 -103.71285004 25.89321327 -106.0625 25.5625 C-109.45212898 24.57841417 -111.19459576 21.86236559 -113 19 C-114.50516631 15.72375467 -115.75878589 12.38291688 -117 9 C-117.33 8.34 -117.66 7.68 -118 7 C-118.039992 5.00039988 -118.04346799 2.99952758 -118 1 C-116.02235532 3.45892989 -114.0584113 5.92367263 -112.140625 8.4296875 C-102.01477166 21.52634905 -90.09049682 30.20764205 -73.3046875 32.56640625 C-60.97975015 33.95829871 -49.2221304 33.29030259 -37.125 30.65625 C-34 30 -34 30 -31 30 C-31 29.34 -31 28.68 -31 28 C-29.77217138 27.37237545 -28.54266164 26.74803935 -27.3125 26.125 C-26.62800781 25.77695312 -25.94351563 25.42890625 -25.23828125 25.0703125 C-23 24 -23 24 -20.56640625 23.17578125 C-11.42077228 18.98577238 -4.76968217 8.41612861 0 0 Z " fill="#E28D38" transform="translate(555,477)"/>
<path d="M0 0 C0.78503906 -0.02384766 1.57007813 -0.04769531 2.37890625 -0.07226562 C6.65367122 -0.06145256 8.36440666 0.15334453 11.8046875 2.91015625 C15.92934512 8.19438743 16.49119002 11.04115566 15.875 17.5625 C15.25729251 21.77231086 14.49379716 25.24190232 11.09375 28.015625 C5.04876118 31.12572794 -1.46502941 31.49489588 -8.125 30.5625 C-11.5625 28.9375 -11.5625 28.9375 -14.125 26.5625 C-15.07375 25.716875 -16.0225 24.87125 -17 24 C-19.87550052 20.36388321 -19.70941205 16.59733572 -19.47265625 12.1171875 C-19.02235859 8.80825865 -18.42885731 7.01499326 -16.125 4.5625 C-10.62891833 0.79054126 -6.60584553 -0.09311723 0 0 Z " fill="#EF6CD1" transform="translate(1119.125,403.4375)"/>
<path d="M0 0 C3.10308216 2.29551775 5.20346091 4.08495012 6.5 7.8125 C7.13468524 13.05869574 7.13014115 17.36842653 5 22.25 C0.68753054 26.6702812 -3.77653903 28.99004088 -10 29.3125 C-15.9500773 29.02475878 -20.45761912 26.54066844 -24.9375 22.75 C-28.4231187 18.42783281 -27.96542542 13.09296298 -27.5 7.8125 C-25.77661869 3.64010313 -23.2052778 1.34293362 -19.5 -1.1875 C-13.10264892 -3.23356111 -5.86633607 -3.46548372 0 0 Z " fill="#FCD9E2" transform="translate(791.5,405.1875)"/>
<path d="M0 0 C10.65289746 2.53534512 18.46626743 7.1546252 25 16 C25.66128906 16.78697266 25.66128906 16.78697266 26.3359375 17.58984375 C37.34921084 32.30758176 35.17005507 56.69687765 35.203125 74.00390625 C35.20736607 75.51066579 35.20736607 75.51066579 35.21169281 77.04786491 C35.22661692 82.3659783 35.23588866 87.68406504 35.24023438 93.00219727 C35.24570332 98.44268672 35.26971785 103.88292397 35.29820633 109.32333469 C35.31700008 113.55403821 35.32204716 117.78468303 35.32357025 122.01542473 C35.32656063 124.01851718 35.33446355 126.02160953 35.34775543 128.02466011 C35.45293066 145.09461926 34.79186477 162.41627047 27 178 C26.34 178 25.68 178 25 178 C24.835 178.680625 24.67 179.36125 24.5 180.0625 C20.91620935 187.08075669 13.17048921 192.09140719 6 195 C-12.89979959 200.82777546 -32.5806806 201.30882865 -52.203125 201.1953125 C-54.14752047 201.19156844 -56.09191786 201.18872809 -58.03631592 201.18673706 C-63.07984912 201.17920998 -68.12326158 201.15965966 -73.16674805 201.1373291 C-78.3429196 201.11663097 -83.51911123 201.10768485 -88.6953125 201.09765625 C-98.79692718 201.07639995 -108.89845344 201.04240146 -119 201 C-119.33 200.34 -119.66 199.68 -120 199 C-108.8465953 198.86886099 -97.69318268 198.73841886 -86.53975964 198.60884857 C-81.35991711 198.54865237 -76.18007754 198.48822269 -71.00024414 198.42724609 C-65.99466395 198.36832961 -60.98907676 198.31004383 -55.98348427 198.25218201 C-54.08067886 198.23007837 -52.177876 198.20775346 -50.27507591 198.18519592 C-47.5950929 198.15346402 -44.91510378 198.12237938 -42.23510742 198.09179688 C-40.99628516 198.07758383 -40.99628516 198.07758383 -39.73243618 198.06308365 C-34.50817622 198.00662351 -29.28558984 197.98778594 -24.06105042 198.03045654 C-18.33745243 197.94587782 -12.78353557 196.61264072 -7.25 195.25 C-6.55624268 195.07952148 -5.86248535 194.90904297 -5.14770508 194.73339844 C0.15423045 193.36333859 4.97275311 191.43958035 9.86328125 188.953125 C12 188 12 188 15 188 C15 187.34 15 186.68 15 186 C15.99 186 16.98 186 18 186 C18 185.01 18 184.02 18 183 C18.721875 182.34 19.44375 181.68 20.1875 181 C29.21015405 172.48999675 30.66410175 157.385122 31.13214111 145.70132446 C31.22781195 141.75550882 31.29606414 137.80981444 31.3515625 133.86328125 C31.37478283 132.37859338 31.3981732 130.89390816 31.42172241 129.40922546 C31.47002201 126.29344245 31.51491063 123.17763206 31.55761719 120.06176758 C31.60085616 116.93307899 31.64928048 113.80454929 31.703125 110.67602539 C31.97974183 94.5688913 32.12396755 78.48661701 31.61328125 62.3828125 C31.57631134 61.17953812 31.53934143 59.97626373 31.50125122 58.73652649 C30.78291257 37.91924708 30.78291257 37.91924708 22.875 19.1875 C20 15.19138756 20 15.19138756 20 13 C19.01 13 18.02 13 17 13 C17 12.34 17 11.68 17 11 C16.236875 10.731875 15.47375 10.46375 14.6875 10.1875 C12.05635874 9.0249027 10.94262348 8.02708537 9 6 C5.80066624 4.01420663 2.70548618 3.50529357 -1 3 C-0.67 2.01 -0.34 1.02 0 0 Z " fill="#B092E5" transform="translate(574,369)"/>
<path d="M0 0 C0.74507812 0.00902344 1.49015625 0.01804687 2.2578125 0.02734375 C4.08868059 0.05081642 5.91938238 0.08668475 7.75 0.125 C7.75 0.785 7.75 1.445 7.75 2.125 C8.348125 2.310625 8.94625 2.49625 9.5625 2.6875 C12.82613866 4.83217683 13.81172194 7.46127408 14.75 11.125 C15.19202808 16.00762428 15.17289817 20.88286562 15.1484375 25.78125 C15.15046164 27.2117935 15.1533759 28.64233599 15.15713501 30.07287598 C15.16154243 33.06186813 15.15517881 36.05059018 15.14111328 39.03955078 C15.12402199 42.8558935 15.13387174 46.67160313 15.15183067 50.48792267 C15.16271163 53.43919579 15.15920254 56.39032074 15.1514473 59.34159851 C15.14945717 60.7481036 15.15186249 62.15462249 15.15888596 63.56111145 C15.21230634 77.26327416 15.21230634 77.26327416 11.75 83.125 C9.75 85.125 9.75 85.125 7.75 86.125 C6.265 85.63 6.265 85.63 4.75 85.125 C5.554375 84.526875 6.35875 83.92875 7.1875 83.3125 C9.97327984 81.31552724 9.97327984 81.31552724 10.75 78.125 C10.84197373 76.55882727 10.87790687 74.9890363 10.87939453 73.42016602 C10.88254669 72.46388809 10.88569885 71.50761017 10.88894653 70.52235413 C10.8869223 69.48501633 10.88489807 68.44767853 10.8828125 67.37890625 C10.88376923 66.29858627 10.88472595 65.2182663 10.88571167 64.10520935 C10.88639343 61.8060602 10.88453941 59.50690914 10.88037109 57.20776367 C10.87511093 53.76020717 10.88026963 50.31278632 10.88671875 46.86523438 C10.89031449 33.58724999 10.57553385 20.37773298 9.75 7.125 C8.35414439 6.44882333 6.95177751 5.78607954 5.546875 5.12890625 C4.76666992 4.75838135 3.98646484 4.38785645 3.18261719 4.00610352 C-0.6667519 2.61184689 -4.43902846 2.61591091 -8.25 4.125 C-11.13561716 6.20522119 -12.98939961 7.85111234 -13.72052002 11.42503357 C-13.90891725 14.31899119 -13.94195589 17.17806711 -13.921875 20.078125 C-13.93462463 21.13408875 -13.94737427 22.19005249 -13.96051025 23.27801514 C-13.99680352 26.64395061 -13.9995194 30.008886 -14 33.375 C-14.02158074 36.75502371 -14.04997846 40.13489479 -14.08233643 43.51483154 C-14.10016432 45.61703421 -14.11038934 47.71931703 -14.11248779 49.82159424 C-14.11629456 50.76637634 -14.12010132 51.71115845 -14.12402344 52.68457031 C-14.12448669 53.51998352 -14.12494995 54.35539673 -14.12542725 55.21612549 C-14.25 57.125 -14.25 57.125 -15.25 58.125 C-15.40582303 59.46515221 -15.50044142 60.81258903 -15.56640625 62.16015625 C-15.60830078 62.96904297 -15.65019531 63.77792969 -15.69335938 64.61132812 C-15.73267578 65.46146484 -15.77199219 66.31160156 -15.8125 67.1875 C-15.85568359 68.04150391 -15.89886719 68.89550781 -15.94335938 69.77539062 C-16.04976702 71.89172037 -16.15041731 74.00833813 -16.25 76.125 C-15.59 76.125 -14.93 76.125 -14.25 76.125 C-13.63125 77.48625 -13.63125 77.48625 -13 78.875 C-11.35949282 81.92165618 -9.80281639 83.83626806 -7.25 86.125 C-9.625 85.875 -9.625 85.875 -12.25 85.125 C-13.5625 83.0625 -13.5625 83.0625 -14.25 81.125 C-14.91 81.125 -15.57 81.125 -16.25 81.125 C-18.41501075 77.6086204 -18.50312674 74.77871533 -18.50878906 70.69165039 C-18.51509338 69.38672134 -18.52139771 68.0817923 -18.52789307 66.73731995 C-18.5243128 65.31576401 -18.52021072 63.8942093 -18.515625 62.47265625 C-18.51697288 61.01061437 -18.51891443 59.54857294 -18.52142334 58.08653259 C-18.52436977 55.02419767 -18.52009311 51.96197954 -18.51074219 48.8996582 C-18.49935796 44.98114484 -18.50590351 41.06290577 -18.51788712 37.1444025 C-18.52512736 34.12546232 -18.52280769 31.10658675 -18.51763153 28.08764458 C-18.51630049 26.64320277 -18.51792358 25.19875503 -18.52259064 23.75432014 C-18.52769006 21.73212934 -18.51853497 19.70991789 -18.50878906 17.68774414 C-18.50719788 16.53842911 -18.50560669 15.38911407 -18.50396729 14.20497131 C-18.24956249 11.1196941 -17.56145305 8.91076988 -16.25 6.125 C-15.59 6.125 -14.93 6.125 -14.25 6.125 C-14.0025 5.50625 -13.755 4.8875 -13.5 4.25 C-10.48956837 -0.86773377 -5.34531532 -0.12277226 0 0 Z " fill="#BA8CE5" transform="translate(1119.25,439.875)"/>
<path d="M0 0 C0.92232422 0.00451172 1.84464844 0.00902344 2.79492188 0.01367188 C5.05085048 0.02536062 7.30663967 0.04174545 9.5625 0.0625 C9.5625 0.7225 9.5625 1.3825 9.5625 2.0625 C3.93049573 2.78921023 -1.4470046 3.04504589 -7.125 2.8125 C-16.11142974 2.74375136 -25.56764196 4.91422339 -32.83984375 10.44921875 C-35.55226706 12.76305085 -35.55226706 12.76305085 -36.12890625 15.4140625 C-36.08636719 16.16429687 -36.04382813 16.91453125 -36 17.6875 C-35.98066406 18.44289063 -35.96132813 19.19828125 -35.94140625 19.9765625 C-35.32906576 22.5113673 -34.44210337 23.43714592 -32.4375 25.0625 C-29.54437304 26.50906348 -27.67183934 26.36197586 -24.4375 26.0625 C-23.303125 25.44375 -22.16875 24.825 -21 24.1875 C-11.85414401 19.3178553 -0.93030644 19.21699378 8.8671875 21.94921875 C12.98525885 23.65016127 14.41613296 25.15304574 16.5625 29.0625 C17.5625 32.25 17.5625 32.25 17.5625 35.0625 C16.125 36.9375 16.125 36.9375 14.5625 38.0625 C13.64210938 37.73894531 12.72171875 37.41539062 11.7734375 37.08203125 C6.62979855 35.6196241 1.49861935 35.73284522 -3.8125 35.75 C-4.8025 35.73388672 -5.7925 35.71777344 -6.8125 35.70117188 C-15.36723797 35.69552891 -22.17227385 37.72933823 -29.8125 41.5 C-31.03066406 42.08587891 -31.03066406 42.08587891 -32.2734375 42.68359375 C-34.64277214 44.19329615 -35.80324876 45.81182066 -37.4375 48.0625 C-38.0975 48.0625 -38.7575 48.0625 -39.4375 48.0625 C-42.09685606 57.03782671 -42.71473657 64.99629354 -38.8359375 73.73046875 C-35.72388185 78.9201258 -31.48395787 82.22199052 -25.9375 84.5 C-24.7 84.7784375 -24.7 84.7784375 -23.4375 85.0625 C-23.7675 85.7225 -24.0975 86.3825 -24.4375 87.0625 C-30.84404687 86.89822957 -35.09968962 83.46421919 -39.4375 79.0625 C-43.99793003 72.51833681 -46.04941336 65.64389153 -45.1796875 57.7109375 C-44.25371291 52.6770029 -42.68723991 49.02312051 -39.4375 45.0625 C-38.7775 45.0625 -38.1175 45.0625 -37.4375 45.0625 C-37.251875 44.485 -37.06625 43.9075 -36.875 43.3125 C-33.36595242 37.82007769 -26.45248955 36.15892645 -20.44921875 34.66015625 C-8.9573254 32.37966379 3.11615325 32.54259531 14.5625 35.0625 C13.96919824 31.80956965 13.18079663 28.96002158 11.5625 26.0625 C6.42854281 22.61860325 -0.45102346 22.30790212 -6.4375 23.0625 C-11.20858716 24.13984226 -15.58013047 25.65637759 -20 27.75 C-24.27578738 29.38257336 -27.91469834 29.84870664 -32.4375 29.0625 C-35.5 27.1875 -35.5 27.1875 -37.4375 25.0625 C-37.4375 24.4025 -37.4375 23.7425 -37.4375 23.0625 C-38.0975 23.0625 -38.7575 23.0625 -39.4375 23.0625 C-40.70239516 17.89751145 -40.47438124 15.16031295 -37.8359375 10.73828125 C-34.06561679 6.22021537 -30.18013342 4.38082077 -24.5625 2.875 C-23.38945313 2.55144531 -22.21640625 2.22789062 -21.0078125 1.89453125 C-13.92680236 0.24436149 -7.23020057 -0.06766926 0 0 Z " fill="#F276D2" transform="translate(938.4375,437.9375)"/>
<path d="M0 0 C1.43653931 -0.00472824 1.43653931 -0.00472824 2.90209961 -0.009552 C3.94374268 -0.00752777 4.98538574 -0.00550354 6.05859375 -0.00341797 C7.12021729 -0.00437469 8.18184082 -0.00533142 9.27563477 -0.00631714 C11.52522847 -0.00699911 13.77482412 -0.00514366 16.02441406 -0.00097656 C19.48116446 0.00437143 22.93778492 -0.00092101 26.39453125 -0.00732422 C28.57421904 -0.00666344 30.75390675 -0.00538228 32.93359375 -0.00341797 C34.49605835 -0.00645432 34.49605835 -0.00645432 36.09008789 -0.009552 C37.04778076 -0.00639984 38.00547363 -0.00324768 38.9921875 0 C39.83966553 0.00079559 40.68714355 0.00159119 41.56030273 0.00241089 C43.49609375 0.12939453 43.49609375 0.12939453 44.49609375 1.12939453 C44.6441452 4.03795677 44.73124917 6.92571371 44.77734375 9.83642578 C44.79575317 10.71336594 44.8141626 11.59030609 44.83312988 12.49382019 C44.89207032 15.3097746 44.94477415 18.12579153 44.99609375 20.94189453 C45.06379482 24.63603195 45.13755045 28.32997811 45.21484375 32.02392578 C45.22841919 32.87509476 45.24199463 33.72626373 45.25598145 34.60322571 C45.27269897 35.40052597 45.2894165 36.19782623 45.30664062 37.01928711 C45.3191687 37.71798416 45.33169678 38.41668121 45.34460449 39.1365509 C45.50356448 41.22767217 45.93141993 43.11305786 46.49609375 45.12939453 C51.82541807 46.83024272 56.92718858 47.64953422 62.49609375 48.12939453 C62.00109375 49.11939453 62.00109375 49.11939453 61.49609375 50.12939453 C56.21609375 50.12939453 50.93609375 50.12939453 45.49609375 50.12939453 C45.49609375 49.13939453 45.49609375 48.14939453 45.49609375 47.12939453 C44.83609375 46.79939453 44.17609375 46.46939453 43.49609375 46.12939453 C41.47919525 41.48483104 41.24057663 37.19448609 41.3359375 32.21142578 C41.34113907 31.47236496 41.34634064 30.73330414 41.35169983 29.97184753 C41.36939949 27.62832257 41.40056838 25.28524956 41.43359375 22.94189453 C41.46125416 20.58787355 41.48594513 18.23391512 41.504776 15.87980652 C41.51699113 14.41955456 41.53455353 12.95933516 41.55809021 11.4992218 C41.5885723 8.41357392 41.48078618 6.08347183 40.49609375 3.12939453 C40.82609375 2.46939453 41.15609375 1.80939453 41.49609375 1.12939453 C40.50609375 1.45939453 39.51609375 1.78939453 38.49609375 2.12939453 C38.99109375 3.11939453 38.99109375 3.11939453 39.49609375 4.12939453 C25.30609375 4.12939453 11.11609375 4.12939453 -3.50390625 4.12939453 C-3.17390625 4.78939453 -2.84390625 5.44939453 -2.50390625 6.12939453 C-2.38089723 8.61268562 -2.31555737 11.0668501 -2.30078125 13.55126953 C-2.29508118 14.28887512 -2.2893811 15.02648071 -2.2835083 15.78643799 C-2.27405492 17.34996099 -2.26752298 18.91350395 -2.26367188 20.47705078 C-2.25400006 22.85631721 -2.22299546 25.23470717 -2.19140625 27.61376953 C-2.18487255 29.13459775 -2.17962352 30.65543213 -2.17578125 32.17626953 C-2.16343445 32.88273621 -2.15108765 33.58920288 -2.1383667 34.31707764 C-2.15922411 38.99991655 -3.04440064 42.15229046 -5.50390625 46.12939453 C-9.23042262 49.58323897 -11.93401488 50.36540615 -16.87890625 50.37939453 C-18.42150862 50.31568824 -19.96388169 50.2389615 -21.50390625 50.12939453 C-21.99890625 48.64439453 -21.99890625 48.64439453 -22.50390625 47.12939453 C-21.50810547 47.21640625 -21.50810547 47.21640625 -20.4921875 47.30517578 C-14.50459345 47.67650885 -14.50459345 47.67650885 -9.44140625 44.69189453 C-8.80203125 43.84626953 -8.16265625 43.00064453 -7.50390625 42.12939453 C-7.00890625 41.63439453 -7.00890625 41.63439453 -6.50390625 41.12939453 C-6.35596206 38.18576276 -6.26879909 35.26264227 -6.22265625 32.31689453 C-6.20424683 31.43283936 -6.1858374 30.54878418 -6.16687012 29.63793945 C-6.10792524 26.80182755 -6.05518706 23.96565477 -6.00390625 21.12939453 C-5.93647887 17.40009332 -5.86281045 13.67099521 -5.78515625 9.94189453 C-5.77158081 9.0752417 -5.75800537 8.20858887 -5.74401855 7.31567383 C-5.59077951 0.0052485 -5.59077951 0.0052485 0 0 Z " fill="#EFCDDF" transform="translate(679.50390625,475.87060546875)"/>
<path d="M0 0 C3.61748504 3.30292112 5.32803842 5.70348585 5.5625 10.5625 C5.32765686 14.78255999 4.12765468 17.05632501 1 20 C-3.00218661 22.00109331 -7.65145426 21.51287742 -12 21 C-14.83203125 19.8828125 -14.83203125 19.8828125 -17.6875 18.5 C-25.04203925 15.06012986 -32.07447829 15.54740041 -40 16 C-38.18376854 13.62880893 -37.24392281 13.04157775 -34.25 12.53125 C-26.95049443 12.46106245 -22.22650415 13.53863314 -15.78125 16.875 C-11.06319238 18.7834278 -5.98623215 18.96042995 -1 18 C1.48980047 14.2652993 1.39633457 11.31751698 1 7 C0.47458333 4.13930698 0.47458333 4.13930698 -1 2 C-14.64295811 -4.32994893 -34.43983983 -5.89561413 -48.99609375 -2.15625 C-56.22527925 0.56965944 -62.28161584 5.2543463 -66.15234375 12.01171875 C-68.84793784 18.33456388 -68.90863076 24.26609885 -66.4375 30.625 C-62.72525364 38.19277239 -56.42872049 41.61146083 -49 45 C-51.6976152 46.05751582 -52.81511218 46.06674953 -55.5859375 45.06640625 C-63.21867754 40.95071309 -68.79206092 36.64537522 -71.4375 28.125 C-72.85628892 20.5729048 -71.66262436 13.64789701 -67.64453125 7.10546875 C-54.14455125 -10.17835362 -17.59969085 -11.87979133 0 0 Z " fill="#F8B6D7" transform="translate(879,444)"/>
<path d="M0 0 C7.8752924 2.25008354 12.91168899 5.97983248 17 13 C19.22239501 19.66718503 19.39532716 30.10859892 16.5 36.5625 C11.98943083 43.76665995 5.04119574 48.44742807 -3.11083984 50.54248047 C-9.85976008 52.01341696 -16.35487543 52.34784879 -23.25 52.3125 C-24.34739502 52.30903564 -25.44479004 52.30557129 -26.57543945 52.30200195 C-37.90855474 52.15040238 -49.87558779 51.42845627 -58.75 43.5625 C-61.61438184 40.30028735 -62.81363422 38.42880428 -63.375 34.125 C-62.89861498 30.15512486 -61.46959574 28.10463464 -59 25 C-54.49789546 21.99859698 -50.27926942 22.29563248 -45 23 C-42.43454624 24.08337058 -40.10104757 25.38848518 -37.67578125 26.75390625 C-30.80772559 29.95231465 -22.50356513 30.34900303 -15 30 C-14.505 30.99 -14.505 30.99 -14 32 C-19.5875535 32.90945687 -24.35447909 32.98969755 -29.9375 31.875 C-30.63480225 31.74246826 -31.33210449 31.60993652 -32.05053711 31.47338867 C-37.03450691 30.43228245 -40.84636521 28.71238667 -45.109375 26.01953125 C-48.16520778 24.37165448 -50.63793364 24.47261704 -54 25 C-57.1850357 26.76015131 -57.83296972 27.49890916 -59 31 C-59.50241693 35.43801617 -59.35919685 37.43399284 -56.9375 41.25 C-49.54002932 48.97624716 -37.43414144 49.05735476 -27.41943359 49.2878418 C-14.35578648 49.40575318 -0.1385975 49.40952982 10 40 C14.97607069 34.35487779 15.4248112 28.45453695 15.3359375 21.17578125 C14.70940861 15.25289772 12.60248906 10.15961807 7.95703125 6.3046875 C6.01100615 5.06405219 4.0832937 3.9887597 2 3 C1.34 2.67 0.68 2.34 0 2 C0 1.34 0 0.68 0 0 Z " fill="#F378D2" transform="translate(869,475)"/>
<path d="M0 0 C0.93045933 2.55144824 1.08564091 3.74006478 0.22265625 6.359375 C-0.16019531 7.14828125 -0.54304687 7.9371875 -0.9375 8.75 C-1.31777344 9.54921875 -1.69804688 10.3484375 -2.08984375 11.171875 C-2.39019531 11.77515625 -2.69054687 12.3784375 -3 13 C-3.66 13 -4.32 13 -5 13 C-5.165 13.680625 -5.33 14.36125 -5.5 15.0625 C-9.08379065 22.08075669 -16.82951079 27.09140719 -24 30 C-42.89979959 35.82777546 -62.5806806 36.30882865 -82.203125 36.1953125 C-84.14752047 36.19156844 -86.09191786 36.18872809 -88.03631592 36.18673706 C-93.07984912 36.17920998 -98.12326158 36.15965966 -103.16674805 36.1373291 C-108.3429196 36.11663097 -113.51911123 36.10768485 -118.6953125 36.09765625 C-128.79692718 36.07639995 -138.89845344 36.04240146 -149 36 C-149.33 35.34 -149.66 34.68 -150 34 C-138.8465953 33.86886099 -127.69318268 33.73841886 -116.53975964 33.60884857 C-111.35991711 33.54865237 -106.18007754 33.48822269 -101.00024414 33.42724609 C-95.99466395 33.36832961 -90.98907676 33.31004383 -85.98348427 33.25218201 C-84.08067886 33.23007837 -82.177876 33.20775346 -80.27507591 33.18519592 C-77.5950929 33.15346402 -74.91510378 33.12237938 -72.23510742 33.09179688 C-71.40922591 33.08232151 -70.5833444 33.07284615 -69.73243618 33.06308365 C-64.50817622 33.00662351 -59.28558984 32.98778594 -54.06105042 33.03045654 C-48.33745243 32.94587782 -42.78353557 31.61264072 -37.25 30.25 C-36.20936401 29.99428223 -36.20936401 29.99428223 -35.14770508 29.73339844 C-29.84576955 28.36333859 -25.02724689 26.43958035 -20.13671875 23.953125 C-18 23 -18 23 -15 23 C-15 22.34 -15 21.68 -15 21 C-14.01 21 -13.02 21 -12 21 C-12 20.01 -12 19.02 -12 18 C-11.29875 17.360625 -10.5975 16.72125 -9.875 16.0625 C-6.14998651 12.6248447 -4.37103626 8.06249932 -2.234375 3.546875 C-1 1 -1 1 0 0 Z " fill="#8996E6" transform="translate(604,534)"/>
<path d="M0 0 C0 0.33 0 0.66 0 1 C-0.71285156 1.00257813 -1.42570313 1.00515625 -2.16015625 1.0078125 C-8.49604731 1.26363583 -12.17011627 2.06037637 -16.7578125 6.52734375 C-18.95719411 9.13478673 -19.12422195 10.9020096 -19.12025452 14.22671509 C-19.12162918 15.11295059 -19.12300385 15.9991861 -19.12442017 16.91227722 C-19.12082489 17.88691422 -19.11722961 18.86155121 -19.11352539 19.86572266 C-19.11367142 20.89013962 -19.11381744 21.91455658 -19.1139679 22.97001648 C-19.11326926 26.3680531 -19.10547911 29.76603542 -19.09765625 33.1640625 C-19.0957919 35.51532969 -19.09436808 37.86659727 -19.09336853 40.21786499 C-19.08954471 46.41570095 -19.07971556 52.6135136 -19.06866455 58.81134033 C-19.05844753 65.13203618 -19.05387028 71.45273578 -19.04882812 77.7734375 C-19.03809319 90.18230193 -19.02101838 102.59114903 -19 115 C-18.34 115 -17.68 115 -17 115 C-16.401875 115.61875 -15.80375 116.2375 -15.1875 116.875 C-12.87494294 119.121484 -11.02800981 119.9906634 -8 121 C-8 121.33 -8 121.66 -8 122 C-14.15423406 121.63074596 -16.72703501 120.17122773 -21 116 C-22.16010063 113.67979874 -22.12812487 112.34518563 -22.13371277 109.76223755 C-22.13797775 108.87336853 -22.14224274 107.98449951 -22.14663696 107.06869507 C-22.14618378 106.09099152 -22.14573059 105.11328796 -22.14526367 104.10595703 C-22.14862228 103.07821167 -22.1519809 102.05046631 -22.15544128 100.99157715 C-22.16497183 97.58031011 -22.16689548 94.16909204 -22.16796875 90.7578125 C-22.17117998 88.39370707 -22.17454395 86.02960183 -22.17805481 83.66549683 C-22.18405143 78.70391377 -22.18589417 73.74234815 -22.18530273 68.78076172 C-22.18520111 62.41611268 -22.1988515 56.05157519 -22.21607494 49.68695259 C-22.22718179 44.80227137 -22.22922234 39.91761721 -22.22869301 35.03292465 C-22.22987518 32.6861317 -22.23431018 30.33933809 -22.24202538 27.99255753 C-22.25179818 24.7125691 -22.2489578 21.43282419 -22.24291992 18.15283203 C-22.24853943 17.17917694 -22.25415894 16.20552185 -22.25994873 15.20236206 C-22.25575424 14.30785339 -22.25155975 13.41334473 -22.24723816 12.49172974 C-22.24778293 11.7163341 -22.24832769 10.94093845 -22.24888897 10.14204597 C-21.77507701 6.06421564 -20.37641764 4.30113411 -17.1875 1.75 C-11.90178736 -1.12902646 -5.82725852 -0.31546061 0 0 Z " fill="#F3E1F0" transform="translate(666,404)"/>
<path d="M0 0 C1.47572951 -0.00424107 1.47572951 -0.00424107 2.98127174 -0.00856781 C8.19723393 -0.02348989 13.41316901 -0.03276102 18.62915039 -0.03710938 C22.88705082 -0.04147828 27.14474682 -0.05531807 31.40258789 -0.078125 C86.54849919 -0.36768029 86.54849919 -0.36768029 104.36328125 5.203125 C104.03328125 6.193125 103.70328125 7.183125 103.36328125 8.203125 C102.64785156 8.00976562 101.93242188 7.81640625 101.1953125 7.6171875 C100.19886719 7.35679687 99.20242188 7.09640625 98.17578125 6.828125 C97.21285156 6.57289063 96.24992188 6.31765625 95.2578125 6.0546875 C81.59519548 3.06727475 68.40152299 2.86007174 54.4609375 2.83203125 C52.1332545 2.82304242 49.805572 2.81392025 47.47789001 2.80467224 C42.61048998 2.7882481 37.74315816 2.78049466 32.87573242 2.77758789 C26.70014526 2.77222327 20.52521806 2.73459298 14.34981632 2.68884373 C9.54247316 2.65879828 4.73528334 2.65185836 -0.07214546 2.65086174 C-2.34547497 2.64671071 -4.61880719 2.63448822 -6.89204216 2.61334419 C-25.43653753 2.45462875 -42.11638103 5.1045414 -59.63671875 11.203125 C-57.96386719 7.35253906 -57.96386719 7.35253906 -55.01953125 6.0078125 C-36.73736492 0.79059957 -18.88209114 0.03699445 0 0 Z " fill="#F276D1" transform="translate(469.63671875,363.796875)"/>
<path d="M0 0 C0.99386719 0.00902344 1.98773437 0.01804687 3.01171875 0.02734375 C4.15060547 0.04474609 4.15060547 0.04474609 5.3125 0.0625 C5.3125 0.7225 5.3125 1.3825 5.3125 2.0625 C4.73242188 2.08828125 4.15234375 2.1140625 3.5546875 2.140625 C-2.44890414 2.57652934 -6.32706543 3.70206543 -10.6875 8.0625 C-12.28378332 16.93074065 -11.75852164 26.10745204 -11.66699219 35.07080078 C-11.64900378 37.00550086 -11.63690614 38.94025293 -11.625 40.875 C-11.61339844 42.01582031 -11.60179687 43.15664063 -11.58984375 44.33203125 C-11.6875 47.0625 -11.6875 47.0625 -12.6875 49.0625 C-12.73437851 51.35368714 -12.72498646 53.64613995 -12.6875 55.9375 C-12.61540383 62.69569635 -12.98605687 69.33616146 -13.6875 76.0625 C-13.0275 76.0625 -12.3675 76.0625 -11.6875 76.0625 C-11.089375 76.990625 -10.49125 77.91875 -9.875 78.875 C-7.68053087 82.07265502 -6.10056279 83.35596861 -2.6875 85.0625 C-5.01581887 85.89404245 -6.2985818 86.18403694 -8.6875 85.4375 C-12.24426461 82.99222433 -14.33073376 80.13279871 -15.6875 76.0625 C-15.79184768 73.95779242 -15.83612925 71.84993137 -15.84863281 69.74267578 C-15.85824036 68.4376712 -15.8678479 67.13266663 -15.87774658 65.78811646 C-15.88259446 64.36135025 -15.88687331 62.93458201 -15.890625 61.5078125 C-15.89637866 60.04434203 -15.90213636 58.58087157 -15.90789795 57.11740112 C-15.91839966 54.04912973 -15.9242478 50.98088449 -15.92773438 47.91259766 C-15.93321852 43.98615145 -15.957248 40.06005212 -15.98570633 36.13371468 C-16.00435422 33.11049396 -16.00953944 30.08735647 -16.01107025 27.0640831 C-16.01409228 25.61683124 -16.02210569 24.16958068 -16.03525543 22.72238541 C-16.05235954 20.69536479 -16.04858456 18.66820075 -16.04394531 16.64111328 C-16.04759094 15.48878204 -16.05123657 14.33645081 -16.05499268 13.14920044 C-15.42703201 7.8747376 -12.60685973 4.49193977 -8.6875 1.0625 C-5.53819107 0.01273036 -3.29935544 -0.03881595 0 0 Z " fill="#F8BFE0" transform="translate(780.6875,439.9375)"/>
<path d="M0 0 C1.18239258 0.00676758 1.18239258 0.00676758 2.38867188 0.01367188 C4.32164761 0.02538688 6.25458393 0.04332002 8.1875 0.0625 C8.8475 1.7125 9.5075 3.3625 10.1875 5.0625 C9.60895264 5.04678955 9.03040527 5.0310791 8.43432617 5.01489258 C-6.96318525 4.49855944 -6.96318525 4.49855944 -21.8125 8.0625 C-23.606875 8.619375 -23.606875 8.619375 -25.4375 9.1875 C-32.31491071 13.00828373 -40.2837957 20.47638711 -42.8125 28.0625 C-43.4725 28.0625 -44.1325 28.0625 -44.8125 28.0625 C-44.93625 28.76375 -45.06 29.465 -45.1875 30.1875 C-45.8125 33.0625 -45.8125 33.0625 -46.8125 35.625 C-48.28674982 40.69273377 -48.4896141 45.81135569 -48.8125 51.0625 C-49.1425 51.0625 -49.4725 51.0625 -49.8125 51.0625 C-50.55257573 37.18196856 -49.52834338 27.20496059 -40.125 16.1875 C-29.2450062 5.00170756 -15.42014732 -0.16803178 0 0 Z " fill="#F5B148" transform="translate(498.8125,416.9375)"/>
<path d="M0 0 C0.92232422 0.00451172 1.84464844 0.00902344 2.79492188 0.01367188 C5.05085048 0.02536062 7.30663967 0.04174545 9.5625 0.0625 C9.5625 0.7225 9.5625 1.3825 9.5625 2.0625 C3.93049573 2.78921023 -1.4470046 3.04504589 -7.125 2.8125 C-16.11142974 2.74375136 -25.56764196 4.91422339 -32.83984375 10.44921875 C-35.55226706 12.76305085 -35.55226706 12.76305085 -36.12890625 15.4140625 C-36.08636719 16.16429687 -36.04382813 16.91453125 -36 17.6875 C-35.98066406 18.44289063 -35.96132813 19.19828125 -35.94140625 19.9765625 C-35.32906576 22.5113673 -34.44210337 23.43714592 -32.4375 25.0625 C-29.54437304 26.50906348 -27.67183934 26.36197586 -24.4375 26.0625 C-23.303125 25.44375 -22.16875 24.825 -21 24.1875 C-12.65894979 19.70478588 -2.28463027 19.25953261 6.8046875 21.359375 C8.5625 22.0625 8.5625 22.0625 9.5625 24.0625 C8.593125 23.8975 7.62375 23.7325 6.625 23.5625 C-3.12052407 22.23178587 -11.0699356 23.51996949 -20 27.75 C-24.27578738 29.38257336 -27.91469834 29.84870664 -32.4375 29.0625 C-35.5 27.1875 -35.5 27.1875 -37.4375 25.0625 C-37.4375 24.4025 -37.4375 23.7425 -37.4375 23.0625 C-38.0975 23.0625 -38.7575 23.0625 -39.4375 23.0625 C-40.70239516 17.89751145 -40.47438124 15.16031295 -37.8359375 10.73828125 C-34.06561679 6.22021537 -30.18013342 4.38082077 -24.5625 2.875 C-23.38945313 2.55144531 -22.21640625 2.22789062 -21.0078125 1.89453125 C-13.92680236 0.24436149 -7.23020057 -0.06766926 0 0 Z " fill="#F781C5" transform="translate(938.4375,437.9375)"/>
<path d="M0 0 C1 2 1 2 0.4765625 3.91796875 C0.19554687 4.66691406 -0.08546875 5.41585938 -0.375 6.1875 C-2.80466 12.67037784 -3.18096267 19.1917657 -3.1875 26.0625 C-3.19974609 26.74376953 -3.21199219 27.42503906 -3.22460938 28.12695312 C-3.23720999 32.4993661 -2.53117507 35.92638872 -1 40 C-0.66366202 41.49483545 -0.34881844 42.99478307 -0.0625 44.5 C0.74575352 48.36527693 2.19749585 51.48082524 4 55 C3.67 55.66 3.34 56.32 3 57 C-0.49602186 51.49376557 -2.7013076 47.59229145 -2 41 C-2.66 41 -3.32 41 -4 41 C-4.02712066 42.43739513 -4.04645067 43.87493863 -4.0625 45.3125 C-4.07410156 46.11300781 -4.08570313 46.91351563 -4.09765625 47.73828125 C-4.09657855 50.16861334 -4.09657855 50.16861334 -3 53 C-2.96045766 55.33299825 -2.95598268 57.66708189 -3 60 C-3.495 58.515 -3.495 58.515 -4 57 C-4.66 57 -5.32 57 -6 57 C-6 54.36 -6 51.72 -6 49 C-6.66 49 -7.32 49 -8 49 C-10.53183825 40.06410031 -10.67994069 31.64494002 -7 23 C-6.835 22.0925 -6.67 21.185 -6.5 20.25 C-6.335 19.5075 -6.17 18.765 -6 18 C-5.34 17.67 -4.68 17.34 -4 17 C-4.0825 16.05125 -4.165 15.1025 -4.25 14.125 C-4.29215976 8.99204922 -2.07385016 4.60135505 0 0 Z " fill="#CA69A4" transform="translate(438,437)"/>
<path d="M0 0 C0.93045933 2.55144824 1.08564091 3.74006478 0.22265625 6.359375 C-0.35162109 7.54273438 -0.35162109 7.54273438 -0.9375 8.75 C-1.50791016 9.94882812 -1.50791016 9.94882812 -2.08984375 11.171875 C-2.39019531 11.77515625 -2.69054687 12.3784375 -3 13 C-3.66 13 -4.32 13 -5 13 C-5.165 13.680625 -5.33 14.36125 -5.5 15.0625 C-9.07252087 22.0586867 -16.83103 27.13042614 -24 30 C-34.80810486 33.26101899 -45.70306008 35.16336554 -57 35.0625 C-57.67933594 35.05798828 -58.35867188 35.05347656 -59.05859375 35.04882812 C-60.70576874 35.0372283 -62.35289726 35.01930199 -64 35 C-60.62256546 33.09036406 -58.20229258 32.84195314 -54.29296875 33.02734375 C-48.50348584 32.95830392 -42.84894023 31.62874671 -37.25 30.25 C-36.55624268 30.07952148 -35.86248535 29.90904297 -35.14770508 29.73339844 C-29.84576955 28.36333859 -25.02724689 26.43958035 -20.13671875 23.953125 C-18 23 -18 23 -15 23 C-15 22.34 -15 21.68 -15 21 C-14.01 21 -13.02 21 -12 21 C-12 20.01 -12 19.02 -12 18 C-11.29875 17.360625 -10.5975 16.72125 -9.875 16.0625 C-6.14998651 12.6248447 -4.37103626 8.06249932 -2.234375 3.546875 C-1 1 -1 1 0 0 Z " fill="#5399EC" transform="translate(604,534)"/>
<path d="M0 0 C1.23367949 2.90488484 0.972147 4.08345507 -0.046875 7.13671875 C-5.19039686 17.86025401 -11.3910788 25.27891113 -22.9375 29.5625 C-32.59323834 32.10409459 -46.72334343 33.38105175 -56 29 C-56.33 28.01 -56.66 27.02 -57 26 C-55.845 26.33 -54.69 26.66 -53.5 27 C-42.39730933 29.43035276 -28.18369226 29.45947293 -18 23.91015625 C-16.63363933 22.9872059 -15.31077284 22.00032664 -14 21 C-13.34 21 -12.68 21 -12 21 C-11.773125 20.113125 -11.54625 19.22625 -11.3125 18.3125 C-10 15 -10 15 -7.5625 12.625 C-4.74099734 9.7346802 -3.85262708 7.54554579 -2.67578125 3.76953125 C-2 2 -2 2 0 0 Z " fill="#9990E5" transform="translate(1090,496)"/>
<path d="M0 0 C0.99 0.33 1.98 0.66 3 1 C3.02505615 2.19077148 3.0501123 3.38154297 3.07592773 4.60839844 C3.17014647 9.02907958 3.27033189 13.4496089 3.37231445 17.87011719 C3.41560857 19.78284146 3.45728756 21.695603 3.49731445 23.60839844 C3.5551508 26.35883818 3.61880676 29.10909128 3.68359375 31.859375 C3.70030624 32.71368103 3.71701874 33.56798706 3.73423767 34.44818115 C3.75418289 35.24870911 3.77412811 36.04923706 3.79467773 36.87402344 C3.81022202 37.57573669 3.8257663 38.27744995 3.84178162 39.00042725 C4.00726836 41.09185797 4.43584497 42.98256308 5 45 C10.32932432 46.70084819 15.43109483 47.52013969 21 48 C20.67 48.66 20.34 49.32 20 50 C14.72 50 9.44 50 4 50 C4 49.01 4 48.02 4 47 C3.34 46.67 2.68 46.34 2 46 C-0.0168985 41.35543651 -0.25551712 37.06509156 -0.16015625 32.08203125 C-0.15495468 31.34297043 -0.14975311 30.60390961 -0.14439392 29.842453 C-0.12669426 27.49892804 -0.09552537 25.15585503 -0.0625 22.8125 C-0.03483959 20.45847901 -0.01014862 18.10452058 0.00868225 15.75041199 C0.02089738 14.29016003 0.03845978 12.82994063 0.06199646 11.36982727 C0.09247855 8.28417939 -0.01530757 5.9540773 -1 3 C-0.67 2.01 -0.34 1.02 0 0 Z " fill="#F4BADE" transform="translate(721,476)"/>
<path d="M0 0 C2.56545376 1.08337058 4.89895243 2.38848518 7.32421875 3.75390625 C14.19227441 6.95231465 22.49643487 7.34900303 30 7 C30.495 7.99 30.495 7.99 31 9 C25.4124465 9.90945687 20.64552091 9.98969755 15.0625 8.875 C14.01654663 8.67620239 14.01654663 8.67620239 12.94946289 8.47338867 C7.96549309 7.43228245 4.15363479 5.71238667 -0.109375 3.01953125 C-3.16520778 1.37165448 -5.63793364 1.47261704 -9 2 C-12.1850357 3.76015131 -12.83296972 4.49890916 -14 8 C-14.48229282 12.26025323 -14.32490797 14.42861012 -12.1875 18.1875 C-8.47338855 22.21471968 -3.10673122 23.47960717 2 25 C1.67 25.66 1.34 26.32 1 27 C-6.34559165 26.1255248 -11.11358579 23.56508285 -16 18 C-18.2472429 14.68264144 -18.47566378 11.96386483 -18 8 C-13.48974925 -0.08734618 -8.78851152 -1.17257551 0 0 Z " fill="#F287D1" transform="translate(824,498)"/>
<path d="M0 0 C5.42096783 0.97577421 8.47612575 2.54373789 11.89453125 6.93359375 C13.85020321 10.58924911 13.89872293 14.00068297 13 18 C11.20606332 20.87029869 10.01736724 22.49131638 7 24 C0.77879652 24.78043771 -4.0364724 24.23661255 -9.6875 21.5 C-17.04203925 18.06012986 -24.07447829 18.54740041 -32 19 C-30.18376854 16.62880893 -29.24392281 16.04157775 -26.25 15.53125 C-18.95049443 15.46106245 -14.22650415 16.53863314 -7.78125 19.875 C-3.06319238 21.7834278 2.01376785 21.96042995 7 21 C9.48980047 17.2652993 9.39633457 14.31751698 9 10 C8.47458333 7.13930698 8.47458333 7.13930698 7 5 C4.55711372 3.68931667 4.55711372 3.68931667 2 3 C1.34 2.67 0.68 2.34 0 2 C0 1.34 0 0.68 0 0 Z " fill="#F8A1D5" transform="translate(871,441)"/>
<path d="M0 0 C1.85044922 0.00676758 1.85044922 0.00676758 3.73828125 0.01367188 C6.74224069 0.02531513 9.74609266 0.04166624 12.75 0.0625 C12.75 0.7225 12.75 1.3825 12.75 2.0625 C11.80495605 2.06660889 10.85991211 2.07071777 9.88623047 2.07495117 C-12.24029939 2.21862305 -32.17103054 3.81012892 -53.25 11.0625 C-51.57714844 7.21191406 -51.57714844 7.21191406 -48.6328125 5.8671875 C-32.47132786 1.25515711 -16.7655059 -0.11832333 0 0 Z " fill="#F886C0" transform="translate(463.25,363.9375)"/>
<path d="M0 0 C-1.28519565 2.86697492 -2.57129254 4.97607712 -5 7 C-5.66 7 -6.32 7 -7 7 C-7 11.29 -7 15.58 -7 20 C-6.01 20.33 -5.02 20.66 -4 21 C-3.2265625 21.99 -3.2265625 21.99 -2.4375 23 C1.72633255 26.41647799 6.97411679 26.235644 12.20703125 25.828125 C13.81303065 25.60570553 15.40884061 25.31131379 17 25 C16.67 25.99 16.34 26.98 16 28 C10.01039198 29.99653601 3.27852945 30.07712301 -2.4375 27.375 C-3.283125 26.59125 -4.12875 25.8075 -5 25 C-5.94875 24.154375 -6.8975 23.30875 -7.875 22.4375 C-10.7496573 18.80244947 -10.58032427 15.0374726 -10.35546875 10.55859375 C-9.90680874 7.32922778 -9.19926897 5.42677955 -7 3 C-2.75862069 0 -2.75862069 0 0 0 Z " fill="#ED73D9" transform="translate(1110,405)"/>
<path d="M0 0 C0.90621094 0.20496094 1.81242187 0.40992188 2.74609375 0.62109375 C18.23927063 4.04762705 34.42323606 6.20910584 50 2 C51.33319778 1.66612491 52.66649058 1.33262819 54 1 C54 1.99 54 2.98 54 4 C37.03603773 7.92615721 21.06559008 9.40214653 4 5 C3.67 4.34 3.34 3.68 3 3 C2.01 2.67 1.02 2.34 0 2 C0 1.34 0 0.68 0 0 Z " fill="#9B7AC9" transform="translate(469,525)"/>
<path d="M0 0 C1.19367187 -0.00257813 2.38734375 -0.00515625 3.6171875 -0.0078125 C6.87847351 0.11566604 9.92438334 0.50836743 13.125 1.125 C13.125 1.455 13.125 1.785 13.125 2.125 C12.21878906 2.10179687 11.31257812 2.07859375 10.37890625 2.0546875 C-1.15285352 1.43142074 -1.15285352 1.43142074 -11.58984375 5.44921875 C-13.56150556 8.02016987 -13.28874405 10.11949973 -13.16796875 13.25390625 C-12.99169589 15.2490081 -12.99169589 15.2490081 -11.5625 17.0625 C-7.10875175 19.86671186 -1.80304391 19.75794182 3.203125 18.67578125 C4.85669486 18.20189233 6.49313677 17.66895441 8.125 17.125 C8.125 18.115 8.125 19.105 8.125 20.125 C1.29711797 22.27451842 -5.2979096 23.19795761 -12.03125 20.1484375 C-15.24978136 18.10387864 -16.64214331 16.74595118 -18 13.125 C-17.80877547 8.5356112 -15.85941732 6.26819431 -12.9375 2.875 C-9.05542825 -0.41887906 -4.94554738 -0.01063559 0 0 Z " fill="#E976D5" transform="translate(938.875,486.875)"/>
<path d="M0 0 C1.06089844 0.00902344 2.12179687 0.01804687 3.21484375 0.02734375 C5.81013638 0.05072476 8.40494465 0.08349444 11 0.125 C11 0.455 11 0.785 11 1.125 C9.94256592 1.24560791 9.94256592 1.24560791 8.86376953 1.36865234 C5.61700181 1.74145892 2.37101417 2.12069048 -0.875 2.5 C-2.53789062 2.68949219 -2.53789062 2.68949219 -4.234375 2.8828125 C-17.72831367 4.36882607 -17.72831367 4.36882607 -30.23828125 9.23828125 C-32.43727756 10.34509314 -34.56528291 10.82066036 -37 11.125 C-34.64320008 8.4822932 -32.23085997 7.05321105 -29.0625 5.5 C-28.20785156 5.07460938 -27.35320312 4.64921875 -26.47265625 4.2109375 C-24.27795629 3.24707243 -22.31697814 2.68403435 -20 2.125 C-18.2675 1.60292969 -18.2675 1.60292969 -16.5 1.0703125 C-11.03820377 -0.29513656 -5.59508995 -0.091034 0 0 Z " fill="#FBC5A6" transform="translate(495,403.875)"/>
<path d="M0 0 C0.33 0 0.66 0 1 0 C1.64268983 9.85457741 -1.3608568 17.11582063 -7.7265625 24.59375 C-11.25808281 28.33157905 -15.04283801 31.7206852 -19 35 C-19.66 34.67 -20.32 34.34 -21 34 C-20.28714844 33.44054687 -19.57429687 32.88109375 -18.83984375 32.3046875 C-8.68179524 23.80091069 -3.24640345 14.25378033 -1 1 C-0.67 0.67 -0.34 0.34 0 0 Z " fill="#FDE48E" transform="translate(545,458)"/>
<path d="M0 0 C0.33 0.66 0.66 1.32 1 2 C0.566875 3.155 0.13375 4.31 -0.3125 5.5 C-3.0057886 12.99920267 -3.27738639 21.11926094 -4 29 C-4.99 29 -5.98 29 -7 29 C-7.33 33.95 -7.66 38.9 -8 44 C-10.09686178 39.80627645 -10.17938917 38.54283695 -9.75 34.0625 C-9.66234375 33.04285156 -9.5746875 32.02320313 -9.484375 30.97265625 C-9.00787836 28.04835026 -8.16385816 25.71105056 -7 23 C-6.835 22.0925 -6.67 21.185 -6.5 20.25 C-6.335 19.5075 -6.17 18.765 -6 18 C-5.34 17.67 -4.68 17.34 -4 17 C-4.0825 16.05125 -4.165 15.1025 -4.25 14.125 C-4.29215976 8.99204922 -2.07385016 4.60135505 0 0 Z " fill="#E776B1" transform="translate(438,437)"/>
<path d="M0 0 C-1 2 -1 2 -3.953125 3.10546875 C-8.53284367 4.29717797 -13.04186405 4.33069218 -17.75 4.3125 C-18.59949219 4.32861328 -19.44898438 4.34472656 -20.32421875 4.36132812 C-21.54818359 4.36229492 -21.54818359 4.36229492 -22.796875 4.36328125 C-23.90047363 4.36775269 -23.90047363 4.36775269 -25.02636719 4.37231445 C-27.50985221 3.90381932 -28.40429283 2.90521391 -30 1 C-28.72125 1.02320313 -27.4425 1.04640625 -26.125 1.0703125 C-24.41667255 1.08908533 -22.70833873 1.10728389 -21 1.125 C-20.16082031 1.14175781 -19.32164062 1.15851562 -18.45703125 1.17578125 C-14.29554908 1.2080408 -10.59070446 1.027115 -6.5625 -0.0703125 C-3 -1 -3 -1 0 0 Z " fill="#DC7ADE" transform="translate(946,523)"/>
<path d="M0 0 C0 3 0 3 -1.57421875 4.9375 C-8.48341795 11.68067408 -8.48341795 11.68067408 -13 14 C-13.804375 14.495 -14.60875 14.99 -15.4375 15.5 C-18.25382036 17.14857777 -21.00492392 18.69779301 -24 20 C-24.99 19.67 -25.98 19.34 -27 19 C-26.25234375 18.61328125 -25.5046875 18.2265625 -24.734375 17.828125 C-23.74953125 17.30734375 -22.7646875 16.7865625 -21.75 16.25 C-20.77546875 15.73953125 -19.8009375 15.2290625 -18.796875 14.703125 C-16.07002124 13.04263863 -14.2061126 11.28042376 -12 9 C-10.25583227 8.01692364 -8.51099419 7.03463802 -6.75 6.08203125 C-4.06056887 4.41914638 -2.13033879 2.32400595 0 0 Z " fill="#917DD0" transform="translate(551,507)"/>
<path d="M0 0 C6.18506494 7.62824675 6.18506494 7.62824675 6.625 12.6875 C6.69976562 13.49574219 6.77453125 14.30398438 6.8515625 15.13671875 C6.92503906 16.05904297 6.92503906 16.05904297 7 17 C7.66 17 8.32 17 9 17 C9.33 17.99 9.66 18.98 10 20 C10.66 20.33 11.32 20.66 12 21 C12 21.99 12 22.98 12 24 C11.34 24 10.68 24 10 24 C5.27603377 19.27603377 3.27531412 14.20134633 1 8 C0.67 7.34 0.34 6.68 0 6 C-0.039992 4.00039988 -0.04346799 1.99952758 0 0 Z " fill="#E28F41" transform="translate(437,478)"/>
<path d="M0 0 C0 0.33 0 0.66 0 1 C-1.01578125 1.17015625 -2.0315625 1.3403125 -3.078125 1.515625 C-11.6749523 3.01022448 -19.7956422 4.93890438 -28 8 C-27.39453125 6.13671875 -27.39453125 6.13671875 -26 4 C-23.13671875 2.76953125 -23.13671875 2.76953125 -19.6875 1.8125 C-18.55699219 1.48894531 -17.42648437 1.16539062 -16.26171875 0.83203125 C-10.22580515 -0.70766887 -6.13360983 -0.9356354 0 0 Z " fill="#FA9EAF" transform="translate(438,367)"/>
<path d="M0 0 C2.0625 0.4375 2.0625 0.4375 4 1 C3.67 1.66 3.34 2.32 3 3 C-4.85256106 5.30503548 -13.04345836 6.26726631 -21.1875 6.8125 C-21.90550781 6.86543213 -22.62351562 6.91836426 -23.36328125 6.97290039 C-27.12227209 7.17255211 -29.81936444 7.12864241 -33 5 C-31.77925781 4.96261719 -30.55851562 4.92523437 -29.30078125 4.88671875 C-13.72084534 5.19814924 -13.72084534 5.19814924 0 0 Z " fill="#967ED0" transform="translate(520,526)"/>
<path d="M0 0 C0.66 0.33 1.32 0.66 2 1 C1.01 1.66 0.02 2.32 -1 3 C-0.67 2.01 -0.34 1.02 0 0 Z M-2.8359375 2.94140625 C-2.23007813 3.29074219 -1.62421875 3.64007813 -1 4 C-8.103056 6.82107189 -14.61568521 8.43161299 -22.0625 6 C-22.701875 5.67 -23.34125 5.34 -24 5 C-20.56439514 2.70959676 -20.05704537 2.88182378 -16.1875 3.5 C-11.60221246 4.09401833 -6.6744162 1.27159873 -2.8359375 2.94140625 Z " fill="#BC83DF" transform="translate(1058,499)"/>
<path d="M0 0 C0 0.66 0 1.32 0 2 C-0.84304688 1.91621094 -1.68609375 1.83242188 -2.5546875 1.74609375 C-3.65039062 1.64425781 -4.74609375 1.54242188 -5.875 1.4375 C-6.96554687 1.33308594 -8.05609375 1.22867187 -9.1796875 1.12109375 C-11.95152023 0.77360596 -11.95152023 0.77360596 -14 2 C-15.41298094 2.1780356 -16.83076636 2.31923053 -18.25 2.4375 C-22.0655883 2.81967524 -25.40287756 3.61649137 -29 5 C-27.52583412 2.69749329 -26.57312671 1.23870896 -24.01171875 0.171875 C-6.14303329 -3.07151665 -6.14303329 -3.07151665 0 0 Z " fill="#ED68D0" transform="translate(1062,439)"/>
<path d="M0 0 C3.16894365 0.59259246 6.33461499 1.20120725 9.5 1.8125 C10.386875 1.97814453 11.27375 2.14378906 12.1875 2.31445312 C17.73053191 3.3945292 22.76897844 4.86725873 28 7 C24.57877069 8.71061465 20.89437403 6.98556162 17.3125 6.125 C11.88429279 4.84204964 6.53702284 3.69676057 1 3 C0.67 2.01 0.34 1.02 0 0 Z " fill="#F49CCE" transform="translate(841,468)"/>
<path d="M0 0 C1.4540625 0.0309375 1.4540625 0.0309375 2.9375 0.0625 C2.9375 2.7025 2.9375 5.3425 2.9375 8.0625 C2.6075 7.4025 2.2775 6.7425 1.9375 6.0625 C0.2875 6.0625 -1.3625 6.0625 -3.0625 6.0625 C-3.3925 6.7225 -3.7225 7.3825 -4.0625 8.0625 C-4.10491723 5.72955225 -4.10342937 3.39547433 -4.0625 1.0625 C-3.0625 0.0625 -3.0625 0.0625 0 0 Z " fill="#FDED9E" transform="translate(500.0625,426.9375)"/>
<path d="M0 0 C2.625 0.375 2.625 0.375 5 1 C4.25 5.75 4.25 5.75 2 8 C-0.125 7.625 -0.125 7.625 -2 7 C-2.125 4.625 -2.125 4.625 -2 2 C-1.34 1.34 -0.68 0.68 0 0 Z " fill="#FEFBF4" transform="translate(530,417)"/>
<path d="M0 0 C1.50433594 0.01353516 1.50433594 0.01353516 3.0390625 0.02734375 C3.80992187 0.03894531 4.58078125 0.05054688 5.375 0.0625 C1.42028574 4.01721426 -5.24759118 3.10957061 -10.5480957 3.12841797 C-13.57405607 3.12343814 -16.59924014 3.09795812 -19.625 3.0625 C-16.74899746 1.41814877 -14.80314758 0.84300629 -11.5 1 C-7.41771582 1.06584329 -4.17295053 -0.04852268 0 0 Z " fill="#5992E8" transform="translate(559.625,565.9375)"/>
<path d="M0 0 C0.56640625 1.88671875 0.56640625 1.88671875 1 4 C-0.0625 5.8125 -0.0625 5.8125 -2 8 C-2.43828125 8.52722656 -2.8765625 9.05445313 -3.328125 9.59765625 C-6.68722604 13.61973776 -10.25106762 17.34032792 -14 21 C-14.66 20.67 -15.32 20.34 -16 20 C-15.43152344 19.47792969 -14.86304688 18.95585937 -14.27734375 18.41796875 C-8.40925624 12.82418249 -4.06886368 6.99949218 0 0 Z " fill="#9F7197" transform="translate(553,486)"/>
<path d="M0 0 C-0.70125 0.24234375 -1.4025 0.4846875 -2.125 0.734375 C-7.37880978 2.59034041 -12.34172661 4.59596766 -17.2734375 7.18359375 C-19.46407089 8.21943624 -21.60216443 8.70027055 -24 9 C-21.64320008 6.3572932 -19.23085997 4.92821105 -16.0625 3.375 C-15.20785156 2.94960938 -14.35320312 2.52421875 -13.47265625 2.0859375 C-11.29091844 1.12776513 -9.31574097 0.51246042 -7 0 C-3.86650268 -1.04449911 -3.01031744 -0.93423645 0 0 Z " fill="#FA9CAB" transform="translate(482,406)"/>
<path d="M0 0 C1.45903258 0.30921884 2.91720722 0.62248799 4.375 0.9375 C5.18710938 1.11152344 5.99921875 1.28554688 6.8359375 1.46484375 C9 2 9 2 11 3 C13.204364 3.22950319 15.41392173 3.41075933 17.625 3.5625 C18.81351563 3.64628906 20.00203125 3.73007812 21.2265625 3.81640625 C22.59941406 3.90728516 22.59941406 3.90728516 24 4 C24 4.33 24 4.66 24 5 C21.29139335 5.05429278 18.58389099 5.09381211 15.875 5.125 C15.11445312 5.14175781 14.35390625 5.15851562 13.5703125 5.17578125 C9.01994271 5.21500858 5.20321474 4.97721316 1 3 C0.67 2.01 0.34 1.02 0 0 Z " fill="#A685E0" transform="translate(1033,522)"/>
<path d="M0 0 C0.66 0.33 1.32 0.66 2 1 C1.3709375 1.556875 0.741875 2.11375 0.09375 2.6875 C-5.44888568 7.62912699 -10.81481699 12.68446323 -16 18 C-16 14.17409951 -14.47000214 12.7631274 -12 9.984375 C-8.29232535 6.30566656 -4.15138914 3.15866565 0 0 Z " fill="#FDD092" transform="translate(460,414)"/>
<path d="M0 0 C6.25107435 0.42954941 12.04204521 1.01401507 18 3 C17.67 3.99 17.34 4.98 17 6 C14.35149716 5.38490238 11.70660095 4.75850592 9.0625 4.125 C8.30775391 3.95097656 7.55300781 3.77695312 6.77539062 3.59765625 C4.83406455 3.12755935 2.91450456 2.5695703 1 2 C0.67 1.34 0.34 0.68 0 0 Z " fill="#E97FDA" transform="translate(556,366)"/>
<path d="M0 0 C0.78503906 0.0721875 1.57007813 0.144375 2.37890625 0.21875 C7.94093627 0.71011952 13.41631878 1.12690185 19 1 C19.33 1.66 19.66 2.32 20 3 C12.97216188 4.35150733 6.97671158 3.40697017 0 2 C0 1.34 0 0.68 0 0 Z " fill="#F07DCA" transform="translate(835,504)"/>
<path d="M0 0 C0.99 0.33 1.98 0.66 3 1 C1.42035192 7.61776809 -0.30242951 13.26239061 -4 19 C-5.21788279 15.34635163 -4.64897183 14.60855401 -3.125 11.1875 C-1.5348922 7.44252198 -0.42935169 4.0788411 0 0 Z " fill="#9B7AC9" transform="translate(561,483)"/>
<path d="M0 0 C0 0.33 0 0.66 0 1 C-0.64066406 1.04898437 -1.28132812 1.09796875 -1.94140625 1.1484375 C-7.20085145 1.60305422 -11.94070917 2.4127715 -17 4 C-18.66246041 4.35371498 -20.32774271 4.69595322 -22 5 C-21.67 4.01 -21.34 3.02 -21 2 C-14.11238978 -0.51662681 -7.25547991 -0.19908329 0 0 Z " fill="#FAC4DA" transform="translate(848,438)"/>
<path d="M0 0 C2.37948772 0.17625835 3.70225849 0.69719773 5.37890625 2.40234375 C6.62115486 3.90649092 7.81376056 5.45129851 9 7 C7.68 7.99 6.36 8.98 5 10 C4.938125 9.38125 4.87625 8.7625 4.8125 8.125 C4.171081 5.72238859 4.171081 5.72238859 1.4375 4.75 C0.633125 4.5025 -0.17125 4.255 -1 4 C-0.67 2.68 -0.34 1.36 0 0 Z " fill="#FAD88B" transform="translate(530,412)"/>
<path d="M0 0 C0.90621094 0.20496094 1.81242187 0.40992188 2.74609375 0.62109375 C9.50058595 2.11494441 16.10659397 3.40574086 23 4 C23 4.33 23 4.66 23 5 C5.26934097 5.29333811 5.26934097 5.29333811 0 2 C0 1.34 0 0.68 0 0 Z " fill="#9B74BE" transform="translate(469,525)"/>
<path d="M0 0 C0.99 0.495 0.99 0.495 2 1 C1.01 1.495 1.01 1.495 0 2 C0 1.34 0 0.68 0 0 Z M-13 1 C-9.04 1 -5.08 1 -1 1 C-0.67 1.66 -0.34 2.32 0 3 C-1.41433206 3.2236337 -2.83167618 3.42826476 -4.25 3.625 C-5.03890625 3.74101563 -5.8278125 3.85703125 -6.640625 3.9765625 C-9.32152459 4.00319395 -10.72694089 3.36592084 -13 2 C-13 1.67 -13 1.34 -13 1 Z " fill="#8892EB" transform="translate(1124,523)"/>
<path d="M0 0 C5.8022175 -0.36263859 9.63999211 0.74315457 15 3 C15 3.66 15 4.32 15 5 C10.05 4.01 5.1 3.02 0 2 C0 1.34 0 0.68 0 0 Z " fill="#F881C7" transform="translate(949,439)"/>
<path d="M0 0 C0.99 0 1.98 0 3 0 C2.67 2.64 2.34 5.28 2 8 C0.68 7.34 -0.64 6.68 -2 6 C-1.125 1.125 -1.125 1.125 0 0 Z " fill="#FBD247" transform="translate(494,442)"/>
<path d="M0 0 C1.0217503 3.80456615 1.34146436 7.03901339 1 11 C-1 14.4375 -1 14.4375 -3 17 C-4.29065057 13.1280483 -3.22324098 10.55767399 -2.0625 6.8125 C-1.76956055 5.83120117 -1.76956055 5.83120117 -1.47070312 4.83007812 C-0.98817437 3.21772593 -0.49509795 1.60853711 0 0 Z " fill="#AB798B" transform="translate(558,469)"/>
<path d="M0 0 C-3.83325617 2.70582788 -6.32538149 3.32613618 -11 3 C-11.33 2.01 -11.66 1.02 -12 0 C-10.37585622 -0.19477739 -8.75063577 -0.38059458 -7.125 -0.5625 C-6.22007812 -0.66691406 -5.31515625 -0.77132812 -4.3828125 -0.87890625 C-2 -1 -2 -1 0 0 Z " fill="#D282E5" transform="translate(977,524)"/>
<path d="M0 0 C2.30569339 3.45854008 2.29761619 4.97937508 2.3125 9.0625 C2.32925781 10.12597656 2.34601562 11.18945312 2.36328125 12.28515625 C2.24339844 13.18105469 2.12351562 14.07695312 2 15 C1.01 15.66 0.02 16.32 -1 17 C-0.67 11.39 -0.34 5.78 0 0 Z " fill="#9F73BA" transform="translate(560,455)"/>
<path d="M0 0 C3.63 0 7.26 0 11 0 C11 0.66 11 1.32 11 2 C5.06 2.495 5.06 2.495 -1 3 C-0.67 2.01 -0.34 1.02 0 0 Z " fill="#FCF5F6" transform="translate(731,404)"/>
<path d="M0 0 C1.32 0.33 2.64 0.66 4 1 C3.67 2.65 3.34 4.3 3 6 C2.01 6.33 1.02 6.66 0 7 C0 4.69 0 2.38 0 0 Z " fill="#FAC933" transform="translate(498,465)"/>
<path d="M0 0 C3.3 0 6.6 0 10 0 C10 0.66 10 1.32 10 2 C6.37 2.33 2.74 2.66 -1 3 C-0.67 2.01 -0.34 1.02 0 0 Z " fill="#FAD4E0" transform="translate(776,440)"/>
<path d="M0 0 C0.66 0.66 1.32 1.32 2 2 C1.7578125 4.3828125 1.7578125 4.3828125 1.125 7.125 C0.92132813 8.03507812 0.71765625 8.94515625 0.5078125 9.8828125 C0.34023438 10.58148438 0.17265625 11.28015625 0 12 C-0.33 12 -0.66 12 -1 12 C-1.02687279 10.18757948 -1.04633715 8.37504767 -1.0625 6.5625 C-1.07410156 5.55316406 -1.08570313 4.54382813 -1.09765625 3.50390625 C-1 1 -1 1 0 0 Z " fill="#C165A5" transform="translate(433,473)"/>
<path d="M0 0 C2.97 0 5.94 0 9 0 C9.33 0.99 9.66 1.98 10 3 C6.7 2.67 3.4 2.34 0 2 C0 1.34 0 0.68 0 0 Z " fill="#FBEDEF" transform="translate(778,403)"/>
<path d="M0 0 C-0.33 0.66 -0.66 1.32 -1 2 C-5.29 1.67 -9.58 1.34 -14 1 C-14 0.67 -14 0.34 -14 0 C-8.97874074 -0.77916092 -5.02296004 -1.13016601 0 0 Z " fill="#E172D7" transform="translate(1053,461)"/>
<path d="M0 0 C1.9375 0.3125 1.9375 0.3125 4 1 C4.33 1.99 4.66 2.98 5 4 C5.66 4.33 6.32 4.66 7 5 C7 5.99 7 6.98 7 8 C6.34 8 5.68 8 5 8 C0 2.52380952 0 2.52380952 0 0 Z " fill="#BC7270" transform="translate(442,494)"/>
<path d="M0 0 C1.32 0 2.64 0 4 0 C4.33 2.64 4.66 5.28 5 8 C2.27573689 5.64722731 1.1858237 3.37503669 0 0 Z " fill="#DB7E45" transform="translate(439,487)"/>
<path d="M0 0 C2.97 0.33 5.94 0.66 9 1 C8.67 1.66 8.34 2.32 8 3 C5.125 3.1875 5.125 3.1875 2 3 C1.34 2.01 0.68 1.02 0 0 Z " fill="#BE88E0" transform="translate(425,564)"/>
<path d="M0 0 C2.97 0.33 5.94 0.66 9 1 C8.67 1.66 8.34 2.32 8 3 C5.125 3.1875 5.125 3.1875 2 3 C1.34 2.01 0.68 1.02 0 0 Z " fill="#F6A7D5" transform="translate(733,523)"/>
<path d="M0 0 C2.97 0 5.94 0 9 0 C9 0.33 9 0.66 9 1 C5.7 1.33 2.4 1.66 -1 2 C-0.67 1.34 -0.34 0.68 0 0 Z " fill="#E87AE1" transform="translate(1113,435)"/>
<path d="M0 0 C1.65 0 3.3 0 5 0 C5 0.33 5 0.66 5 1 C3.35 1 1.7 1 0 1 C0 0.67 0 0.34 0 0 Z " fill="#E7C5E4" transform="translate(654,527)"/>
<path d="M0 0 C4 1 4 1 4 1 Z " fill="#ECC5E4" transform="translate(663,527)"/>
<path d="M0 0 C0.99 0 1.98 0 3 0 C2.67 0.66 2.34 1.32 2 2 C1.34 1.34 0.68 0.68 0 0 Z " fill="#E1C5E6" transform="translate(648,525)"/>
<path d="M0 0 C3 1 3 1 3 1 Z " fill="#F4AFDE" transform="translate(732,527)"/>
<path d="M0 0 C3 1 3 1 3 1 Z " fill="#F5ACD5" transform="translate(855,461)"/>
<path d="M0 0 C3 1 3 1 3 1 Z " fill="#F9D7E2" transform="translate(779,435)"/>
<path d="M0 0 C2 1 2 1 2 1 Z " fill="#F5B0D2" transform="translate(842,460)"/>
<path d="M0 0 C2 1 2 1 2 1 Z " fill="#EB79E1" transform="translate(1109,434)"/>
<path d="M0 0 C2 1 2 1 2 1 Z " fill="#F471D6" transform="translate(1120,402)"/>
<path d="" fill="#F59CDC" transform="translate(0,0)"/>
<path d="" fill="#F282D4" transform="translate(0,0)"/>
<path d="" fill="#E183E5" transform="translate(0,0)"/>
<path d="" fill="#E76EDB" transform="translate(0,0)"/>
<path d="" fill="#FAE0E8" transform="translate(0,0)"/>
<path d="" fill="#F88BCA" transform="translate(0,0)"/>
<path d="" fill="#E585E2" transform="translate(0,0)"/>
<path d="" fill="#ED81DF" transform="translate(0,0)"/>
</svg>
